<?xml version="1.0" encoding="UTF-8" standalone="no"?><svg xmlns="http://www.w3.org/2000/svg" xmlns:xlink="http://www.w3.org/1999/xlink"><symbol viewBox="0 0 1250 500" id="VDU_Logo"><defs><clipPath id="aa"><path d="M0 400h1000V0H0v400z"/></clipPath></defs><g transform="matrix(1.25 0 0 -1.25 0 500)"><path d="M184.485 114.633L59.38 343.554h53.568l95.16-180.012 95.166 180.012h53.9l-125.775-228.92h-46.914z" fill="#ff9f19"/><g clip-path="url(#aa)"><path d="M759.614 114.633c-12.646 0-23.35 1.333-32.11 3.99-8.766 2.665-15.863 6.934-21.296 12.816-5.433 5.874-9.371 13.361-11.808 22.46-2.443 9.09-3.66 20.177-3.66 33.272v156.383h44.582V187.171c0-9.768 1.833-16.806 5.49-21.134 3.66-4.32 9.925-6.485 18.802-6.485H871.41c8.87 0 15.142 2.164 18.8 6.485 3.66 4.328 5.492 11.366 5.492 21.134v156.383h44.919V187.171c0-13.095-1.222-24.182-3.66-33.273-2.442-9.098-6.381-16.585-11.813-22.459-5.44-5.882-12.595-10.15-21.46-12.816-8.876-2.658-19.631-3.99-32.278-3.99H759.614zM77.141 56.445L59.38 88.951h7.601l13.514-25.56 13.514 25.56h7.648L83.802 56.445h-6.661zM106.908 56.445v32.506h31.223v-6.43h-24.846v-7.177h24.138v-5.246h-24.138v-7.276h24.846v-6.377h-31.223zM178.522 65.845c0-1.729-.19-3.197-.569-4.392-.377-1.196-.98-2.165-1.816-2.908-.835-.736-1.932-1.276-3.284-1.607-1.352-.33-2.994-.493-4.915-.493h-22.96c.064 1.068.133 2.135.214 3.191.076 1.051.151 2.118.215 3.186h22.108c.853 0 1.566.058 2.147.168.586.11 1.044.308 1.375.586.331.285.563.656.708 1.114.14.453.21 1.027.21 1.724 0 1.352-.297 2.292-.895 2.808-.603.522-1.735.783-3.406.783h-13.178c-1.955 0-3.586.17-4.89.517-1.307.348-2.363.882-3.163 1.607-.807.725-1.38 1.636-1.724 2.74-.348 1.101-.522 2.395-.522 3.875v1.085c0 1.607.174 2.994.522 4.16.343 1.161.93 2.107 1.747 2.832.818.725 1.897 1.26 3.232 1.607 1.34.348 3 .523 4.984.523h22.775l-.377-3.238a156.713 156.713 0 0 0-.43-3.238h-21.968c-1.572 0-2.634-.267-3.185-.8-.552-.54-.83-1.45-.83-2.745 0-1.289.278-2.21.83-2.762.551-.552 1.613-.824 3.185-.824h12.992c2.02 0 3.72-.169 5.106-.499 1.387-.33 2.501-.842 3.354-1.532a5.894 5.894 0 0 0 1.84-2.623c.377-1.056.568-2.292.568-3.708v-1.137zM195.25 56.445v26.076h-11.86v6.43h30.092v-6.43h-11.854V56.445h-6.377zM225.627 69.39V56.447h-6.377V88.95h30.515v-6.43h-24.138V75.06h23.622v-5.67h-23.622zM287.279 78.367c0 1.607-.284 2.698-.853 3.284-.57.58-1.561.871-2.977.871h-17.1c-1.415 0-2.408-.291-2.976-.871-.57-.586-.853-1.677-.853-3.284V66.93c0-.818.064-1.485.19-2.007.128-.517.337-.935.638-1.248.296-.319.691-.54 1.178-.661.488-.128 1.097-.192 1.822-.192h17.1c1.451 0 2.45.284 3 .853.551.563.83 1.654.83 3.255v11.437zm-20.93-21.922c-1.984 0-3.62.174-4.914.522-1.294.343-2.333.929-3.116 1.747-.79.818-1.341 1.903-1.654 3.261-.32 1.352-.476 3.023-.476 5.007v11.431c0 1.985.157 3.656.476 5.008.313 1.352.865 2.443 1.654 3.261.783.818 1.822 1.398 3.116 1.747 1.294.348 2.93.522 4.914.522h17.147c1.92 0 3.539-.174 4.845-.522 1.305-.349 2.356-.929 3.139-1.747.789-.818 1.346-1.909 1.677-3.261.33-1.352.499-3.023.499-5.008V66.982c0-1.984-.168-3.655-.5-5.007-.33-1.358-.887-2.443-1.676-3.261-.783-.818-1.834-1.404-3.14-1.747-1.305-.348-2.924-.522-4.844-.522h-17.147zM301.17 56.445v32.506h6.377V62.868h24.469v-6.423H301.17zM368.769 78.367c0 1.607-.284 2.698-.853 3.284-.563.58-1.555.871-2.977.871h-20.923v-19.7h20.923c1.45 0 2.449.284 3 .853.55.563.83 1.654.83 3.255v11.437zm-31.183-21.922v32.506h27.353c1.985 0 3.633-.174 4.938-.522 1.306-.349 2.35-.94 3.122-1.77.772-.836 1.323-1.921 1.654-3.261.33-1.341.493-3 .493-4.985V66.982c0-1.984-.163-3.655-.493-5.007-.331-1.358-.882-2.443-1.654-3.261-.772-.818-1.816-1.404-3.122-1.747-1.305-.348-2.953-.522-4.938-.522h-27.353z" fill="#13284c"/><path d="M465.963 300.575v42.98h-65.247V114.633h65.247v42.488h-22.759v143.454h22.76z" fill="#ff9f19"/><path d="M634.27 285.494v.006c-4.996 17.465-12.649 35.004-22.74 52.126l-3.509 5.929h-46.588l11.006-18.292c10.035-16.674 17.483-33.031 22.143-48.616a165.456 165.456 0 0 0 6.956-47.428c0-16.034-2.34-31.992-6.95-47.435-4.679-15.604-12.207-32.035-22.373-48.828l-11.1-18.322h46.091l3.521 5.829c10.46 17.322 18.335 35.053 23.412 52.698 5.102 17.732 7.684 36.677 7.684 56.3 0 19.624-2.538 38.475-7.553 56.033" fill="#13284c"/><path d="M431.899 78.367c0 1.607-.284 2.698-.853 3.284-.563.58-1.555.871-2.977.871h-20.923v-19.7h20.923c1.451 0 2.449.284 3 .853.551.563.83 1.654.83 3.255v11.437zm-31.183-21.922v32.506h27.353c1.985 0 3.633-.174 4.938-.522 1.306-.349 2.35-.94 3.122-1.77.772-.836 1.323-1.921 1.654-3.261.33-1.341.493-3 .493-4.985V66.982c0-1.984-.163-3.655-.493-5.007-.331-1.358-.882-2.443-1.654-3.261-.772-.818-1.816-1.404-3.122-1.747-1.305-.348-2.953-.522-4.938-.522h-27.353zM445.883 88.951h6.377V56.445h-6.377v32.506zM490.243 56.445l-.186 3.97c-.093-.477-.307-.947-.638-1.417a5.315 5.315 0 0 0-1.277-1.276c-.516-.378-1.143-.685-1.868-.923-.719-.238-1.543-.354-2.454-.354h-13.793c-2.019 0-3.679.162-4.984.493-1.312.331-2.339.905-3.099 1.73-.754.818-1.282 1.897-1.578 3.231-.302 1.341-.453 3.035-.453 5.083v11.431c0 1.95.151 3.598.453 4.938.296 1.335.824 2.426 1.578 3.261.76.83 1.787 1.428 3.1 1.793 1.304.36 2.964.546 4.983.546h16.485c1.195 0 2.24-.169 3.122-.499.876-.33 1.636-.743 2.263-1.23.632-.488 1.137-1.004 1.514-1.556.377-.55.662-1.05.847-1.49l-4.015-4.155c-.313.626-.772 1.201-1.369 1.723-.598.516-1.526.777-2.786.777h-16.014c-1.48 0-2.49-.284-3.024-.847-.539-.568-.806-1.653-.806-3.26V67.921c0-1.13.058-2.03.168-2.692.11-.66.313-1.172.615-1.532.296-.365.691-.598 1.178-.708.487-.11 1.114-.168 1.87-.168h14.783c1.8 0 3.041.261 3.731.777.697.523 1.045 1.29 1.045 2.292v4.161h-12.19v5.292h18.19V56.445h-5.39zM503.188 88.951h6.377V56.445h-6.377v32.506zM527.327 56.445v26.076h-11.86v6.43h30.09v-6.43h-11.853V56.445h-6.377zM564.364 82.568l-7.369-13.462h14.738l-7.369 13.462zm13.845-26.123l-4.068 7.561h-19.6l-4.068-7.561h-7.27l17.807 32.506h6.661l17.808-32.506h-7.27zM590.73 56.445v32.506h6.378V62.868h24.469v-6.423H590.73zM627.2 56.445v32.506h31.222v-6.43h-24.846v-7.177h24.138v-5.246h-24.138v-7.276h24.846v-6.377H627.2zM693.776 56.445c-1.799 0-3.319.191-4.56.57-1.242.376-2.252.98-3.024 1.815-.772.835-1.329 1.897-1.677 3.191-.348 1.288-.522 2.867-.522 4.723v22.207h6.33V66.744c0-1.386.262-2.384.784-2.999.516-.616 1.41-.923 2.67-.923h15.87c1.258 0 2.152.307 2.668.923.522.615.783 1.613.783 3V88.95h6.377V66.744c0-1.856-.174-3.435-.522-4.723-.342-1.294-.905-2.356-1.677-3.19-.772-.837-1.787-1.44-3.046-1.817-1.259-.378-2.785-.569-4.584-.569h-15.87zM755.898 56.445L732.99 80.398V56.445h-6.1v32.506h6.854l22.299-23.53v23.53h6.139V56.445h-6.284zM799.88 56.445l-.185 3.97c-.093-.477-.307-.947-.638-1.417a5.328 5.328 0 0 0-1.276-1.276c-.517-.378-1.144-.685-1.87-.923-.718-.238-1.542-.354-2.453-.354h-13.793c-2.02 0-3.68.162-4.984.493-1.312.331-2.34.905-3.1 1.73-.753.818-1.281 1.897-1.577 3.231-.302 1.341-.453 3.035-.453 5.083v11.431c0 1.95.15 3.598.453 4.938.296 1.335.824 2.426 1.578 3.261.76.83 1.787 1.428 3.099 1.793 1.305.36 2.965.546 4.984.546h16.485c1.195 0 2.24-.169 3.122-.499.876-.33 1.636-.743 2.263-1.23.632-.488 1.137-1.004 1.514-1.556.377-.55.662-1.05.847-1.49l-4.015-4.155c-.313.626-.772 1.201-1.37 1.723-.597.516-1.525.777-2.785.777h-16.014c-1.48 0-2.49-.284-3.024-.847-.54-.568-.806-1.653-.806-3.26V67.921c0-1.13.058-2.03.168-2.692.11-.66.313-1.172.615-1.532.296-.365.69-.598 1.178-.708.488-.11 1.114-.168 1.869-.168h14.784c1.799 0 3.04.261 3.73.777.698.523 1.046 1.29 1.046 2.292v4.161H787.08v5.292h18.19V56.445h-5.39zM843.77 78.367c0 1.607-.283 2.698-.852 3.284-.563.58-1.555.871-2.977.871h-20.923v-19.7h20.923c1.45 0 2.449.284 3 .853.55.563.83 1.654.83 3.255v11.437zm-31.182-21.922v32.506h27.353c1.985 0 3.633-.174 4.938-.522 1.306-.349 2.35-.94 3.122-1.77.772-.836 1.323-1.921 1.654-3.261.33-1.341.493-3 .493-4.985V66.982c0-1.984-.163-3.655-.493-5.007-.331-1.358-.882-2.443-1.654-3.261-.772-.818-1.816-1.404-3.122-1.747-1.305-.348-2.953-.522-4.938-.522h-27.353zM888.607 78.367c0 1.607-.284 2.698-.853 3.284-.57.58-1.561.871-2.977.871h-17.1c-1.415 0-2.408-.291-2.976-.871-.57-.586-.853-1.677-.853-3.284V66.93c0-.818.064-1.485.19-2.007.129-.517.338-.935.639-1.248.296-.319.69-.54 1.178-.661.488-.128 1.097-.192 1.822-.192h17.1c1.45 0 2.449.284 3 .853.55.563.83 1.654.83 3.255v11.437zm-20.93-21.922c-1.984 0-3.62.174-4.914.522-1.294.343-2.333.929-3.116 1.747-.79.818-1.341 1.903-1.654 3.261-.32 1.352-.476 3.023-.476 5.007v11.431c0 1.985.157 3.656.476 5.008.313 1.352.865 2.443 1.654 3.261.783.818 1.822 1.398 3.116 1.747 1.294.348 2.93.522 4.914.522h17.147c1.92 0 3.539-.174 4.845-.522 1.305-.349 2.356-.929 3.139-1.747.789-.818 1.346-1.909 1.677-3.261.33-1.352.499-3.023.499-5.008V66.982c0-1.984-.168-3.655-.5-5.007-.33-1.358-.887-2.443-1.676-3.261-.783-.818-1.834-1.404-3.14-1.747-1.305-.348-2.924-.522-4.844-.522h-17.147zM934.76 56.445v21.26l-10.3-21.26h-5.901l-10.253 21.26v-21.26h-5.86v32.506h6.992l12.145-25.984 12.185 25.984h6.853V56.445h-5.861z" fill="#ff9f19"/></g></g></symbol><symbol viewBox="0 0 208.08 103.95" id="quadcore-logo_neg_hor_160611"><defs><style>.ba{fill:#010913;stroke:#fff;stroke-miterlimit:10}.bb{fill:#e0a01a}.bc{fill:#fff}</style></defs><title>quadcore-logo_neg_hor_160611</title><path class="ba" d="M.5 103.44V.49h207.08v102.95z"/><path class="bb" d="M32.94 43.44a10.67 10.67 0 1 1 10-7l-1.58-.57a9 9 0 1 0-5.31 5.37l.62 1.49a10.66 10.66 0 0 1-3.73.71z"/><path class="bc" d="M33.11 83.01a10.66 10.66 0 1 1 3.71-20.66l-.59 1.58a9 9 0 1 0 5.33 5.37l1.57-.57a10.67 10.67 0 0 1-10.02 14.28z"/><path class="bb" d="M72.07 43.64a10.6 10.6 0 0 1-3.71-.67l.59-1.57a9 9 0 1 0-5.31-5.37l-1.58.57a10.66 10.66 0 1 1 10.01 7.04zM72.24 83.17a10.66 10.66 0 0 1-10-14.28l1.58.57a9 9 0 1 0 5.31-5.37l-.59-1.57a10.66 10.66 0 1 1 3.7 20.65z"/><path class="bc" d="M72.48 69.73a3.06 3.06 0 0 0-.63 0c-9.15-7.45-10.81-13.37-11.11-15.1v-4c.29-1.71 1.93-7.56 10.91-14.94a3.07 3.07 0 1 0-2.51-2.2c-2.08 2.13-9.64 9.62-14 10.85h-4.11c-4.09 0-12.89-8.71-15.17-11a3.07 3.07 0 1 0-2.51 2.2c10.74 8.82 11 15.45 11 15.45v4.09c-.48 2.13-2.5 7.65-10.79 14.5a3.07 3.07 0 1 0 2.47 2.15c2.18-2.23 10.38-10.34 14.65-11h3.81c4.38.66 12.88 9.18 14.8 11.15a3 3 0 1 0 3.19-2.15zM114.76 65.73h-3.69V53.59h-.08a6.72 6.72 0 0 1-2.83 2.4 9 9 0 0 1-3.94.88 10.29 10.29 0 0 1-4.08-.78 9.14 9.14 0 0 1-3.12-2.15 9.55 9.55 0 0 1-2-3.24 11.94 11.94 0 0 1 0-8 9.79 9.79 0 0 1 2-3.26 9 9 0 0 1 3.12-2.17 10.29 10.29 0 0 1 4.08-.78 9.05 9.05 0 0 1 3.83.86 7 7 0 0 1 2.94 2.38h.08v-2.79h3.69v28.79zm-10.08-25.84a6.67 6.67 0 0 0-2.66.51 5.89 5.89 0 0 0-2 1.39 6.14 6.14 0 0 0-1.27 2.13 8.46 8.46 0 0 0 0 5.45 6.12 6.12 0 0 0 1.27 2.13 5.88 5.88 0 0 0 2 1.39 7.19 7.19 0 0 0 5.33 0 5.89 5.89 0 0 0 2-1.39 6.15 6.15 0 0 0 1.27-2.13 8.46 8.46 0 0 0 0-5.45 6.17 6.17 0 0 0-1.27-2.13 5.91 5.91 0 0 0-2-1.39 6.67 6.67 0 0 0-2.67-.51zM137.56 56.37h-3.69v-3h-.08a5.43 5.43 0 0 1-2.42 2.52 8 8 0 0 1-4 1 8.38 8.38 0 0 1-2.71-.43 6.09 6.09 0 0 1-2.23-1.33 6.42 6.42 0 0 1-1.54-2.32 8.86 8.86 0 0 1-.57-3.34V36.94h3.69v11.48a6.48 6.48 0 0 0 .37 2.32 4.21 4.21 0 0 0 1 1.56 3.69 3.69 0 0 0 1.42.86 5.21 5.21 0 0 0 1.66.27 6 6 0 0 0 2.13-.37 4.44 4.44 0 0 0 1.72-1.17 5.52 5.52 0 0 0 1.15-2 9.26 9.26 0 0 0 .41-2.91v-10h3.69v19.39zM143.22 39.32a10.28 10.28 0 0 1 3.61-2.15 12.34 12.34 0 0 1 4.1-.72 11.26 11.26 0 0 1 3.67.53 7.15 7.15 0 0 1 2.52 1.44 5.68 5.68 0 0 1 1.44 2.07 6.46 6.46 0 0 1 .47 2.44v11.81q0 .89.12 1.64h-3.28q-.12-1.48-.12-3h-.08a7.05 7.05 0 0 1-2.91 2.66 9.17 9.17 0 0 1-3.89.78 8.94 8.94 0 0 1-2.58-.37 6.32 6.32 0 0 1-2.15-1.11 5.28 5.28 0 0 1-1.46-1.82 6.3 6.3 0 0 1 .31-5.68 6.37 6.37 0 0 1 2.3-2.07 11.08 11.08 0 0 1 3.4-1.15 23.66 23.66 0 0 1 4.16-.35h2.71v-.77a4 4 0 0 0-.29-1.48 4 4 0 0 0-.86-1.33 4.12 4.12 0 0 0-1.44-.94 5.46 5.46 0 0 0-2-.35 7.58 7.58 0 0 0-1.87.21 8.3 8.3 0 0 0-1.46.51 6.38 6.38 0 0 0-1.19.72l-1 .78zm10.41 7.71a26 26 0 0 0-2.69.14 10.54 10.54 0 0 0-2.5.55 4.81 4.81 0 0 0-1.88 1.15 2.59 2.59 0 0 0-.72 1.89 2.67 2.67 0 0 0 1.13 2.42 5.51 5.51 0 0 0 3.05.74 5.91 5.91 0 0 0 2.58-.51 4.84 4.84 0 0 0 1.72-1.33 5.17 5.17 0 0 0 .94-1.82 7.21 7.21 0 0 0 .29-2v-1.23h-2zM183.89 56.37h-3.69v-2.78h-.08a7 7 0 0 1-2.93 2.42 9.05 9.05 0 0 1-3.83.86 10.28 10.28 0 0 1-4.08-.78 9 9 0 0 1-3.12-2.17 9.79 9.79 0 0 1-2-3.24 11.27 11.27 0 0 1-.7-4 11.45 11.45 0 0 1 .7-4 9.53 9.53 0 0 1 2-3.24 9.16 9.16 0 0 1 3.12-2.15 10.29 10.29 0 0 1 4.08-.78 9 9 0 0 1 3.94.88 6.74 6.74 0 0 1 2.83 2.4h.08V25.38h3.69v31zm-10.09-3a6.67 6.67 0 0 0 2.67-.51 5.89 5.89 0 0 0 2-1.39 6.15 6.15 0 0 0 1.27-2.13 8.46 8.46 0 0 0 0-5.45 6.17 6.17 0 0 0-1.27-2.13 5.9 5.9 0 0 0-2-1.39 7.19 7.19 0 0 0-5.33 0 5.89 5.89 0 0 0-2 1.39 6.16 6.16 0 0 0-1.27 2.13 8.46 8.46 0 0 0 0 5.45 6.14 6.14 0 0 0 1.27 2.13 5.87 5.87 0 0 0 2 1.39 6.67 6.67 0 0 0 2.66.56zM150.45 67.73a4.35 4.35 0 0 0-1.21-.91 3.39 3.39 0 0 0-1.51-.31 3.33 3.33 0 0 0-1.48.31 3 3 0 0 0-1.06.85 3.83 3.83 0 0 0-.64 1.24 4.85 4.85 0 0 0-.22 1.46 4.07 4.07 0 0 0 .23 1.36 3.61 3.61 0 0 0 .71 1.18 3.27 3.27 0 0 0 1.1.79 3.52 3.52 0 0 0 1.45.29 3.31 3.31 0 0 0 1.49-.31 3.83 3.83 0 0 0 1.15-.91l1.47 1.47a4.62 4.62 0 0 1-1.87 1.29 6.55 6.55 0 0 1-2.27.39 6.24 6.24 0 0 1-2.31-.41 5.33 5.33 0 0 1-1.81-1.16 5.13 5.13 0 0 1-1.11-1.75 6.22 6.22 0 0 1-.41-2.31 6.31 6.31 0 0 1 .41-2.32 5.18 5.18 0 0 1 3-3 6.16 6.16 0 0 1 2.33-.43 6.26 6.26 0 0 1 2.29.43 5 5 0 0 1 1.9 1.3zM153.21 70.25a5.55 5.55 0 0 1 .45-2.23 5.82 5.82 0 0 1 1.23-1.82 5.86 5.86 0 0 1 8.23 0 5.81 5.81 0 0 1 1.23 1.82 5.55 5.55 0 0 1 .45 2.23 5.67 5.67 0 0 1-1.68 4.06 5.84 5.84 0 0 1-1.84 1.22 6 6 0 0 1-4.55 0 5.83 5.83 0 0 1-1.84-1.22 5.67 5.67 0 0 1-1.68-4.06zm2.21 0a4.47 4.47 0 0 0 .25 1.53 3.44 3.44 0 0 0 .71 1.2 3.29 3.29 0 0 0 1.18.75 4 4 0 0 0 3 0 3.29 3.29 0 0 0 1.13-.78 3.44 3.44 0 0 0 .71-1.2 4.75 4.75 0 0 0 0-3.06 3.46 3.46 0 0 0-.71-1.2 3.32 3.32 0 0 0-1.13-.78 4 4 0 0 0-3 0 3.32 3.32 0 0 0-1.13.78 3.46 3.46 0 0 0-.71 1.2 4.47 4.47 0 0 0-.3 1.56zM167.4 64.8h2.07v1.68a3 3 0 0 1 .55-.79 3.69 3.69 0 0 1 .77-.61 4 4 0 0 1 .93-.4 3.55 3.55 0 0 1 1-.15 2.91 2.91 0 0 1 .92.14l-.09 2.23-.44-.17a2.87 2.87 0 0 0-.51 0 3 3 0 0 0-2.32.85 3.74 3.74 0 0 0-.81 2.65v5.5h-2.07V64.8zM177.06 71.01a2.73 2.73 0 0 0 .31 1.3 3.24 3.24 0 0 0 .82 1 3.78 3.78 0 0 0 1.17.64 4.2 4.2 0 0 0 1.38.23 3.08 3.08 0 0 0 1.68-.45 5.4 5.4 0 0 0 1.31-1.18l1.56 1.2a5.76 5.76 0 0 1-4.83 2.23 6 6 0 0 1-2.33-.44 5.08 5.08 0 0 1-1.77-1.21 5.36 5.36 0 0 1-1.12-1.82 6.42 6.42 0 0 1-.39-2.27 6 6 0 0 1 .43-2.27 5.6 5.6 0 0 1 1.17-1.82 5.36 5.36 0 0 1 1.78-1.21 5.74 5.74 0 0 1 2.25-.44 5.39 5.39 0 0 1 2.45.51 4.83 4.83 0 0 1 1.63 1.34 5.22 5.22 0 0 1 .93 1.84 7.68 7.68 0 0 1 .29 2.08v.74h-8.72zm6.5-1.66a4.4 4.4 0 0 0-.22-1.27 2.79 2.79 0 0 0-.59-1 2.69 2.69 0 0 0-1-.67 3.57 3.57 0 0 0-1.37-.24 3.33 3.33 0 0 0-1.39.29 3.38 3.38 0 0 0-1.07.75 3.46 3.46 0 0 0-.68 1 2.82 2.82 0 0 0-.24 1.12h6.56z"/></symbol></svg>