<?xml version="1.0" encoding="UTF-8" standalone="no"?><svg xmlns="http://www.w3.org/2000/svg" xmlns:xlink="http://www.w3.org/1999/xlink"><symbol viewBox="0 0 1250 500" id="VDU_Logo"><defs><clipPath id="aa"><path d="M0 400h1000V0H0v400z"/></clipPath></defs><g transform="matrix(1.25 0 0 -1.25 0 500)"><path d="M184.485 114.633L59.38 343.554h53.568l95.16-180.012 95.166 180.012h53.9l-125.775-228.92h-46.914z" fill="#ff9f19"/><g clip-path="url(#aa)"><path d="M759.614 114.633c-12.646 0-23.35 1.333-32.11 3.99-8.766 2.665-15.863 6.934-21.296 12.816-5.433 5.874-9.371 13.361-11.808 22.46-2.443 9.09-3.66 20.177-3.66 33.272v156.383h44.582V187.171c0-9.768 1.833-16.806 5.49-21.134 3.66-4.32 9.925-6.485 18.802-6.485H871.41c8.87 0 15.142 2.164 18.8 6.485 3.66 4.328 5.492 11.366 5.492 21.134v156.383h44.919V187.171c0-13.095-1.222-24.182-3.66-33.273-2.442-9.098-6.381-16.585-11.813-22.459-5.44-5.882-12.595-10.15-21.46-12.816-8.876-2.658-19.631-3.99-32.278-3.99H759.614zM77.141 56.445L59.38 88.951h7.601l13.514-25.56 13.514 25.56h7.648L83.802 56.445h-6.661zM106.908 56.445v32.506h31.223v-6.43h-24.846v-7.177h24.138v-5.246h-24.138v-7.276h24.846v-6.377h-31.223zM178.522 65.845c0-1.729-.19-3.197-.569-4.392-.377-1.196-.98-2.165-1.816-2.908-.835-.736-1.932-1.276-3.284-1.607-1.352-.33-2.994-.493-4.915-.493h-22.96c.064 1.068.133 2.135.214 3.191.076 1.051.151 2.118.215 3.186h22.108c.853 0 1.566.058 2.147.168.586.11 1.044.308 1.375.586.331.285.563.656.708 1.114.14.453.21 1.027.21 1.724 0 1.352-.297 2.292-.895 2.808-.603.522-1.735.783-3.406.783h-13.178c-1.955 0-3.586.17-4.89.517-1.307.348-2.363.882-3.163 1.607-.807.725-1.38 1.636-1.724 2.74-.348 1.101-.522 2.395-.522 3.875v1.085c0 1.607.174 2.994.522 4.16.343 1.161.93 2.107 1.747 2.832.818.725 1.897 1.26 3.232 1.607 1.34.348 3 .523 4.984.523h22.775l-.377-3.238a156.713 156.713 0 0 0-.43-3.238h-21.968c-1.572 0-2.634-.267-3.185-.8-.552-.54-.83-1.45-.83-2.745 0-1.289.278-2.21.83-2.762.551-.552 1.613-.824 3.185-.824h12.992c2.02 0 3.72-.169 5.106-.499 1.387-.33 2.501-.842 3.354-1.532a5.894 5.894 0 0 0 1.84-2.623c.377-1.056.568-2.292.568-3.708v-1.137zM195.25 56.445v26.076h-11.86v6.43h30.092v-6.43h-11.854V56.445h-6.377zM225.627 69.39V56.447h-6.377V88.95h30.515v-6.43h-24.138V75.06h23.622v-5.67h-23.622zM287.279 78.367c0 1.607-.284 2.698-.853 3.284-.57.58-1.561.871-2.977.871h-17.1c-1.415 0-2.408-.291-2.976-.871-.57-.586-.853-1.677-.853-3.284V66.93c0-.818.064-1.485.19-2.007.128-.517.337-.935.638-1.248.296-.319.691-.54 1.178-.661.488-.128 1.097-.192 1.822-.192h17.1c1.451 0 2.45.284 3 .853.551.563.83 1.654.83 3.255v11.437zm-20.93-21.922c-1.984 0-3.62.174-4.914.522-1.294.343-2.333.929-3.116 1.747-.79.818-1.341 1.903-1.654 3.261-.32 1.352-.476 3.023-.476 5.007v11.431c0 1.985.157 3.656.476 5.008.313 1.352.865 2.443 1.654 3.261.783.818 1.822 1.398 3.116 1.747 1.294.348 2.93.522 4.914.522h17.147c1.92 0 3.539-.174 4.845-.522 1.305-.349 2.356-.929 3.139-1.747.789-.818 1.346-1.909 1.677-3.261.33-1.352.499-3.023.499-5.008V66.982c0-1.984-.168-3.655-.5-5.007-.33-1.358-.887-2.443-1.676-3.261-.783-.818-1.834-1.404-3.14-1.747-1.305-.348-2.924-.522-4.844-.522h-17.147zM301.17 56.445v32.506h6.377V62.868h24.469v-6.423H301.17zM368.769 78.367c0 1.607-.284 2.698-.853 3.284-.563.58-1.555.871-2.977.871h-20.923v-19.7h20.923c1.45 0 2.449.284 3 .853.55.563.83 1.654.83 3.255v11.437zm-31.183-21.922v32.506h27.353c1.985 0 3.633-.174 4.938-.522 1.306-.349 2.35-.94 3.122-1.77.772-.836 1.323-1.921 1.654-3.261.33-1.341.493-3 .493-4.985V66.982c0-1.984-.163-3.655-.493-5.007-.331-1.358-.882-2.443-1.654-3.261-.772-.818-1.816-1.404-3.122-1.747-1.305-.348-2.953-.522-4.938-.522h-27.353z" fill="#13284c"/><path d="M465.963 300.575v42.98h-65.247V114.633h65.247v42.488h-22.759v143.454h22.76z" fill="#ff9f19"/><path d="M634.27 285.494v.006c-4.996 17.465-12.649 35.004-22.74 52.126l-3.509 5.929h-46.588l11.006-18.292c10.035-16.674 17.483-33.031 22.143-48.616a165.456 165.456 0 0 0 6.956-47.428c0-16.034-2.34-31.992-6.95-47.435-4.679-15.604-12.207-32.035-22.373-48.828l-11.1-18.322h46.091l3.521 5.829c10.46 17.322 18.335 35.053 23.412 52.698 5.102 17.732 7.684 36.677 7.684 56.3 0 19.624-2.538 38.475-7.553 56.033" fill="#13284c"/><path d="M431.899 78.367c0 1.607-.284 2.698-.853 3.284-.563.58-1.555.871-2.977.871h-20.923v-19.7h20.923c1.451 0 2.449.284 3 .853.551.563.83 1.654.83 3.255v11.437zm-31.183-21.922v32.506h27.353c1.985 0 3.633-.174 4.938-.522 1.306-.349 2.35-.94 3.122-1.77.772-.836 1.323-1.921 1.654-3.261.33-1.341.493-3 .493-4.985V66.982c0-1.984-.163-3.655-.493-5.007-.331-1.358-.882-2.443-1.654-3.261-.772-.818-1.816-1.404-3.122-1.747-1.305-.348-2.953-.522-4.938-.522h-27.353zM445.883 88.951h6.377V56.445h-6.377v32.506zM490.243 56.445l-.186 3.97c-.093-.477-.307-.947-.638-1.417a5.315 5.315 0 0 0-1.277-1.276c-.516-.378-1.143-.685-1.868-.923-.719-.238-1.543-.354-2.454-.354h-13.793c-2.019 0-3.679.162-4.984.493-1.312.331-2.339.905-3.099 1.73-.754.818-1.282 1.897-1.578 3.231-.302 1.341-.453 3.035-.453 5.083v11.431c0 1.95.151 3.598.453 4.938.296 1.335.824 2.426 1.578 3.261.76.83 1.787 1.428 3.1 1.793 1.304.36 2.964.546 4.983.546h16.485c1.195 0 2.24-.169 3.122-.499.876-.33 1.636-.743 2.263-1.23.632-.488 1.137-1.004 1.514-1.556.377-.55.662-1.05.847-1.49l-4.015-4.155c-.313.626-.772 1.201-1.369 1.723-.598.516-1.526.777-2.786.777h-16.014c-1.48 0-2.49-.284-3.024-.847-.539-.568-.806-1.653-.806-3.26V67.921c0-1.13.058-2.03.168-2.692.11-.66.313-1.172.615-1.532.296-.365.691-.598 1.178-.708.487-.11 1.114-.168 1.87-.168h14.783c1.8 0 3.041.261 3.731.777.697.523 1.045 1.29 1.045 2.292v4.161h-12.19v5.292h18.19V56.445h-5.39zM503.188 88.951h6.377V56.445h-6.377v32.506zM527.327 56.445v26.076h-11.86v6.43h30.09v-6.43h-11.853V56.445h-6.377zM564.364 82.568l-7.369-13.462h14.738l-7.369 13.462zm13.845-26.123l-4.068 7.561h-19.6l-4.068-7.561h-7.27l17.807 32.506h6.661l17.808-32.506h-7.27zM590.73 56.445v32.506h6.378V62.868h24.469v-6.423H590.73zM627.2 56.445v32.506h31.222v-6.43h-24.846v-7.177h24.138v-5.246h-24.138v-7.276h24.846v-6.377H627.2zM693.776 56.445c-1.799 0-3.319.191-4.56.57-1.242.376-2.252.98-3.024 1.815-.772.835-1.329 1.897-1.677 3.191-.348 1.288-.522 2.867-.522 4.723v22.207h6.33V66.744c0-1.386.262-2.384.784-2.999.516-.616 1.41-.923 2.67-.923h15.87c1.258 0 2.152.307 2.668.923.522.615.783 1.613.783 3V88.95h6.377V66.744c0-1.856-.174-3.435-.522-4.723-.342-1.294-.905-2.356-1.677-3.19-.772-.837-1.787-1.44-3.046-1.817-1.259-.378-2.785-.569-4.584-.569h-15.87zM755.898 56.445L732.99 80.398V56.445h-6.1v32.506h6.854l22.299-23.53v23.53h6.139V56.445h-6.284zM799.88 56.445l-.185 3.97c-.093-.477-.307-.947-.638-1.417a5.328 5.328 0 0 0-1.276-1.276c-.517-.378-1.144-.685-1.87-.923-.718-.238-1.542-.354-2.453-.354h-13.793c-2.02 0-3.68.162-4.984.493-1.312.331-2.34.905-3.1 1.73-.753.818-1.281 1.897-1.577 3.231-.302 1.341-.453 3.035-.453 5.083v11.431c0 1.95.15 3.598.453 4.938.296 1.335.824 2.426 1.578 3.261.76.83 1.787 1.428 3.099 1.793 1.305.36 2.965.546 4.984.546h16.485c1.195 0 2.24-.169 3.122-.499.876-.33 1.636-.743 2.263-1.23.632-.488 1.137-1.004 1.514-1.556.377-.55.662-1.05.847-1.49l-4.015-4.155c-.313.626-.772 1.201-1.37 1.723-.597.516-1.525.777-2.785.777h-16.014c-1.48 0-2.49-.284-3.024-.847-.54-.568-.806-1.653-.806-3.26V67.921c0-1.13.058-2.03.168-2.692.11-.66.313-1.172.615-1.532.296-.365.69-.598 1.178-.708.488-.11 1.114-.168 1.869-.168h14.784c1.799 0 3.04.261 3.73.777.698.523 1.046 1.29 1.046 2.292v4.161H787.08v5.292h18.19V56.445h-5.39zM843.77 78.367c0 1.607-.283 2.698-.852 3.284-.563.58-1.555.871-2.977.871h-20.923v-19.7h20.923c1.45 0 2.449.284 3 .853.55.563.83 1.654.83 3.255v11.437zm-31.182-21.922v32.506h27.353c1.985 0 3.633-.174 4.938-.522 1.306-.349 2.35-.94 3.122-1.77.772-.836 1.323-1.921 1.654-3.261.33-1.341.493-3 .493-4.985V66.982c0-1.984-.163-3.655-.493-5.007-.331-1.358-.882-2.443-1.654-3.261-.772-.818-1.816-1.404-3.122-1.747-1.305-.348-2.953-.522-4.938-.522h-27.353zM888.607 78.367c0 1.607-.284 2.698-.853 3.284-.57.58-1.561.871-2.977.871h-17.1c-1.415 0-2.408-.291-2.976-.871-.57-.586-.853-1.677-.853-3.284V66.93c0-.818.064-1.485.19-2.007.129-.517.338-.935.639-1.248.296-.319.69-.54 1.178-.661.488-.128 1.097-.192 1.822-.192h17.1c1.45 0 2.449.284 3 .853.55.563.83 1.654.83 3.255v11.437zm-20.93-21.922c-1.984 0-3.62.174-4.914.522-1.294.343-2.333.929-3.116 1.747-.79.818-1.341 1.903-1.654 3.261-.32 1.352-.476 3.023-.476 5.007v11.431c0 1.985.157 3.656.476 5.008.313 1.352.865 2.443 1.654 3.261.783.818 1.822 1.398 3.116 1.747 1.294.348 2.93.522 4.914.522h17.147c1.92 0 3.539-.174 4.845-.522 1.305-.349 2.356-.929 3.139-1.747.789-.818 1.346-1.909 1.677-3.261.33-1.352.499-3.023.499-5.008V66.982c0-1.984-.168-3.655-.5-5.007-.33-1.358-.887-2.443-1.676-3.261-.783-.818-1.834-1.404-3.14-1.747-1.305-.348-2.924-.522-4.844-.522h-17.147zM934.76 56.445v21.26l-10.3-21.26h-5.901l-10.253 21.26v-21.26h-5.86v32.506h6.992l12.145-25.984 12.185 25.984h6.853V56.445h-5.861z" fill="#ff9f19"/></g></g></symbol><symbol viewBox="0 0 260.10001 129.9375" id="quadcore-logo"><g transform="matrix(.13 0 0 -.13 0 129.938)"><path d="M5 5h2070.76v1029.46H5V5z" fill="#0a0a0d"/><path d="M5 5h2070.76v1029.46H5V5z" fill="none" stroke="#fff" stroke-width="10" stroke-miterlimit="10"/><path d="M329.395 604.984c-15.098 0-30.149 3.25-44.29 9.719-25.894 11.848-45.632 33.067-55.566 59.758-9.937 26.684-8.887 55.648 2.957 81.543 11.844 25.898 33.067 45.637 59.754 55.57 26.699 9.938 55.656 8.883 81.547-2.957 25.898-11.844 45.633-33.066 55.566-59.754 8.809-23.644 8.938-49.715.371-73.41l-15.804 5.715c7.215 19.957 7.105 41.914-.309 61.832-8.375 22.484-25 40.359-46.812 50.34-21.817 9.965-46.215 10.859-68.696 2.488-22.48-8.371-40.359-24.996-50.34-46.812-9.972-21.817-10.859-46.215-2.492-68.696 8.375-22.48 25-40.355 46.817-50.336 21.812-9.976 46.215-10.863 68.695-2.492l5.859-15.746c-12.117-4.512-24.703-6.762-37.257-6.762" fill="#f5970f"/><path d="M331.02 209.301c-12.555 0-25.137 2.246-37.254 6.758-26.692 9.933-47.911 29.671-59.754 55.566-11.852 25.898-12.903 54.863-2.961 81.551 20.515 55.09 82.031 83.222 137.117 62.711l-5.863-15.746c-46.41 17.289-98.223-6.418-115.512-52.828-17.277-46.415 6.422-98.227 52.836-115.508 22.488-8.375 46.883-7.485 68.691 2.492 21.817 9.976 38.442 27.855 46.813 50.336 7.418 19.918 7.527 41.875.308 61.832l15.805 5.715c8.567-23.696 8.438-49.766-.367-73.41-9.934-26.688-29.668-47.911-55.57-59.754-14.137-6.465-29.192-9.715-44.289-9.715" fill="#fff"/><path d="M720.637 603.07c-12.336 0-24.871 2.157-37.09 6.707l5.859 15.746c46.418-17.293 98.231 6.418 115.512 52.829 17.277 46.414-6.422 98.226-52.832 115.507-22.484 8.368-46.883 7.481-68.691-2.492-21.821-9.976-38.446-27.855-46.817-50.336a89.836 89.836 0 0 1-.308-61.832l-15.805-5.715c-8.567 23.696-8.438 49.766.371 73.411 9.934 26.683 29.668 47.91 55.566 59.753 25.903 11.848 54.86 12.891 81.547 2.957 26.692-9.933 47.91-29.671 59.754-55.566 11.848-25.898 12.899-54.863 2.961-81.551-15.965-42.871-56.758-69.418-100.027-69.418M722.375 207.688c-43.277-.008-84.062 26.539-100.027 69.417-8.805 23.641-8.934 49.715-.368 73.407l15.801-5.715c-7.215-19.953-7.105-41.914.313-61.832 17.281-46.406 69.109-70.094 115.508-52.828 22.476 8.371 40.359 25 50.336 46.812 9.976 21.817 10.859 46.215 2.492 68.696-17.278 46.41-69.094 70.101-115.508 52.832l-5.863 15.746c55.105 20.515 116.605-7.625 137.117-62.715 9.937-26.688 8.887-55.649-2.957-81.547-11.848-25.898-33.071-45.633-59.754-55.57-12.219-4.547-24.762-6.703-37.09-6.703" fill="#f5970f"/><path d="M724.77 342.184a30.747 30.747 0 0 1-6.325-.145c-91.547 74.524-108.121 133.731-111.066 150.977v39.632c2.926 17.125 19.285 75.622 109.137 149.407 2.195-.309 4.441-.43 6.742-.239 16.781 1.387 29.258 16.114 27.871 32.891-1.387 16.781-16.113 29.258-32.891 27.871-16.777-1.387-29.258-16.113-27.871-32.89.16-1.961.539-3.852 1.051-5.68-20.848-21.293-96.449-96.153-140.445-108.535H510.27l.168.168c-40.915 0-128.907 87.101-151.657 110.336.512 1.828.891 3.714 1.055 5.679 1.383 16.778-11.094 31.504-27.875 32.891-16.777 1.387-31.504-11.09-32.891-27.871-1.386-16.778 11.09-31.504 27.871-32.895 2.301-.187 4.547-.066 6.743.239 107.371-88.172 109.773-154.528 109.773-154.528v-40.863c-4.816-21.348-24.969-76.621-108.262-145.02-2.195.309-4.441.43-6.742.239-16.777-1.383-29.258-16.114-27.871-32.891 1.387-16.781 16.113-29.258 32.895-27.871 16.777 1.387 29.257 16.113 27.871 32.891-.164 1.961-.543 3.851-1.051 5.679 21.836 22.305 103.777 103.426 146.504 109.895h38.109c43.817-6.633 128.848-91.75 148.035-111.461-.519-1.86-.902-3.781-1.066-5.777-1.387-16.782 11.094-31.508 27.871-32.895 16.781-1.387 31.508 11.094 32.895 27.871 1.386 16.781-11.094 31.508-27.875 32.895M1046.74 640.504c-9.83 0-18.72-1.707-26.64-5.121-7.94-3.422-14.63-8.067-20.1-13.942-5.465-5.882-9.703-12.988-12.699-21.324-3.02-8.34-4.516-17.422-4.516-27.262 0-9.839 1.496-18.933 4.516-27.261 2.996-8.348 7.234-15.449 12.699-21.324 5.47-5.879 12.16-10.524 20.1-13.942 7.92-3.418 16.81-5.121 26.64-5.121 9.85 0 18.72 1.703 26.65 5.121s14.62 8.063 20.1 13.942c5.46 5.875 9.7 12.976 12.71 21.324 3 8.328 4.51 17.422 4.51 27.261 0 9.84-1.51 18.922-4.51 27.262-3.01 8.336-7.25 15.442-12.71 21.324-5.48 5.875-12.17 10.52-20.1 13.942-7.93 3.414-16.8 5.121-26.65 5.121zm100.87-258.301h-36.9v121.363h-.82c-6.57-10.117-15.99-18.109-28.29-23.98-12.3-5.879-25.42-8.816-39.36-8.816-15.04 0-28.64 2.597-40.8 7.793-12.159 5.183-22.549 12.359-31.163 21.515-8.601 9.156-15.234 19.953-19.882 32.395-4.649 12.429-6.961 25.894-6.961 40.382 0 14.208 2.312 27.532 6.961 39.973 4.648 12.438 11.281 23.301 19.882 32.598 8.614 9.289 19.004 16.535 31.163 21.73 12.16 5.192 25.76 7.785 40.8 7.785 13.12 0 25.89-2.863 38.33-8.605 12.43-5.738 22.21-13.805 29.32-24.191h.82v27.882h36.9V382.203M1375.56 475.691h-36.89v29.926h-.82c-4.65-10.39-12.72-18.801-24.19-25.211-11.49-6.426-24.75-9.636-39.78-9.636-9.57 0-18.58 1.433-27.06 4.304-8.47 2.871-15.92 7.305-22.34 13.321-6.43 6.011-11.55 13.738-15.37 23.164-3.83 9.429-5.75 20.566-5.75 33.418v125.05h36.91v-114.8c0-9.024 1.23-16.747 3.69-23.164 2.45-6.426 5.73-11.622 9.83-15.583 4.1-3.964 8.82-6.835 14.15-8.613 5.33-1.777 10.86-2.66 16.6-2.66 7.65 0 14.76 1.231 21.32 3.688 6.57 2.46 12.31 6.355 17.22 11.683 4.92 5.332 8.75 12.102 11.48 20.297 2.73 8.199 4.11 17.902 4.11 29.113v100.039h36.89V475.691M1536.28 569.168c-8.75 0-17.69-.484-26.85-1.438-9.16-.96-17.49-2.804-25.01-5.535-7.52-2.734-13.67-6.558-18.45-11.48-4.78-4.918-7.18-11.211-7.18-18.86 0-11.207 3.76-19.269 11.28-24.187 7.51-4.922 17.7-7.383 30.54-7.383 10.12 0 18.72 1.703 25.83 5.125 7.11 3.414 12.85 7.856 17.23 13.328 4.36 5.461 7.51 11.543 9.42 18.242 1.91 6.696 2.87 13.325 2.87 19.887v12.301h-19.68zm-104.14 77.078c10.39 9.567 22.41 16.738 36.09 21.524 13.66 4.781 27.32 7.171 40.99 7.171 14.21 0 26.45-1.773 36.7-5.324 10.25-3.554 18.65-8.34 25.22-14.351 6.55-6.016 11.4-12.914 14.55-20.703 3.14-7.793 4.71-15.926 4.71-24.395v-99.223c0-6.836.14-13.121.41-18.859.27-5.742.68-11.211 1.23-16.395h-32.8a355.004 355.004 0 0 0-1.23 29.516h-.82c-8.19-12.578-17.9-21.461-29.11-26.644-11.21-5.196-24.19-7.793-38.95-7.793-9.02 0-17.62 1.23-25.83 3.691-8.2 2.461-15.37 6.152-21.52 11.062-6.15 4.922-11 11-14.56 18.25-3.55 7.235-5.32 15.641-5.32 25.211 0 12.571 2.79 23.098 8.4 31.571 5.6 8.468 13.25 15.375 22.96 20.707 9.69 5.328 21.04 9.156 34.03 11.48 12.98 2.321 26.85 3.485 41.61 3.485h27.06v8.199c0 4.922-.96 9.84-2.87 14.762-1.91 4.917-4.79 9.359-8.6 13.324-3.84 3.961-8.62 7.105-14.36 9.429-5.73 2.321-12.57 3.485-20.5 3.485-7.11 0-13.32-.688-18.65-2.051-5.33-1.371-10.19-3.074-14.56-5.125-4.38-2.051-8.34-4.445-11.88-7.176-3.56-2.73-6.98-5.332-10.26-7.793l-22.14 22.965M1738 505.207c9.85 0 18.72 1.703 26.65 5.121 7.92 3.418 14.62 8.063 20.09 13.942 5.47 5.875 9.7 12.976 12.71 21.324 3 8.328 4.52 17.422 4.52 27.261 0 9.84-1.52 18.922-4.52 27.262-3.01 8.336-7.24 15.442-12.71 21.324-5.47 5.875-12.17 10.52-20.09 13.942-7.93 3.414-16.8 5.121-26.65 5.121-9.84 0-18.72-1.707-26.65-5.121-7.93-3.422-14.63-8.067-20.09-13.942-5.47-5.882-9.7-12.988-12.71-21.324-3.01-8.34-4.51-17.422-4.51-27.262 0-9.839 1.5-18.933 4.51-27.261 3.01-8.348 7.24-15.449 12.71-21.324 5.46-5.879 12.16-10.524 20.09-13.942 7.93-3.418 16.81-5.121 26.65-5.121zm100.86-29.516h-36.89v27.875h-.82c-7.12-10.39-16.89-18.453-29.32-24.183-12.44-5.742-25.21-8.613-38.34-8.613-15.03 0-28.63 2.597-40.79 7.793-12.17 5.183-22.55 12.425-31.16 21.722-8.62 9.285-15.25 20.094-19.89 32.395-4.64 12.297-6.97 25.687-6.97 40.175 0 14.485 2.33 27.942 6.97 40.383 4.64 12.438 11.27 23.235 19.89 32.395 8.61 9.152 18.99 16.328 31.16 21.523 12.16 5.192 25.76 7.785 40.79 7.785 13.95 0 27.06-2.937 39.37-8.812 12.29-5.879 21.72-13.875 28.29-23.984h.82v143.503h36.89V475.691M1504.47 362.488c-3.84 3.985-7.86 7.012-12.08 9.082-4.22 2.071-9.24 3.106-15.06 3.106-5.68 0-10.63-1.035-14.84-3.106-4.21-2.07-7.74-4.902-10.58-8.507-2.83-3.602-4.98-7.743-6.44-12.422-1.46-4.676-2.18-9.539-2.18-14.598 0-5.07.83-9.855 2.52-14.375 1.69-4.531 4.07-8.477 7.13-11.848 3.07-3.379 6.75-6.023 11.05-7.937 4.29-1.914 9.12-2.871 14.49-2.871 5.82 0 10.8 1.035 14.94 3.105 4.14 2.071 7.98 5.098 11.51 9.082l14.71-14.719c-5.36-5.984-11.61-10.273-18.74-12.878-7.13-2.61-14.69-3.918-22.65-3.918-8.44 0-16.15 1.386-23.12 4.14-6.98 2.766-13 6.633-18.06 11.621-5.05 4.981-8.96 10.957-11.72 17.942-2.77 6.972-4.15 14.676-4.15 23.113 0 8.43 1.38 16.172 4.15 23.223 2.76 7.05 6.63 13.117 11.61 18.175 4.98 5.059 10.96 9.004 17.94 11.844 6.98 2.832 14.75 4.258 23.35 4.258 7.96 0 15.59-1.426 22.88-4.258 7.28-2.84 13.61-7.168 18.97-12.996l-15.63-14.258M1554.14 336.961c0-5.52.84-10.625 2.53-15.293 1.69-4.688 4.07-8.672 7.13-11.965 3.07-3.301 6.83-5.906 11.27-7.82 4.46-1.914 9.44-2.871 14.95-2.871 5.52 0 10.5.957 14.95 2.871 4.45 1.914 8.21 4.519 11.27 7.82 3.07 3.293 5.44 7.277 7.13 11.965 1.69 4.668 2.53 9.773 2.53 15.293 0 5.516-.84 10.613-2.53 15.293-1.69 4.676-4.06 8.66-7.13 11.961-3.06 3.293-6.82 5.898-11.27 7.824-4.45 1.914-9.43 2.871-14.95 2.871-5.51 0-10.49-.957-14.95-2.871-4.44-1.926-8.2-4.531-11.27-7.824-3.06-3.301-5.44-7.285-7.13-11.961-1.69-4.68-2.53-9.777-2.53-15.293zm-22.08 0c0 7.969 1.5 15.41 4.49 22.305 2.99 6.902 7.09 12.957 12.3 18.172 5.22 5.214 11.35 9.316 18.41 12.304 7.05 2.988 14.64 4.485 22.76 4.485 8.13 0 15.72-1.497 22.78-4.485 7.05-2.988 13.18-7.09 18.4-12.304 5.21-5.215 9.31-11.27 12.3-18.172 2.99-6.895 4.48-14.336 4.48-22.305 0-7.981-1.49-15.449-4.48-22.422-2.99-6.984-7.09-13.039-12.3-18.176-5.22-5.136-11.35-9.199-18.4-12.187-7.06-2.996-14.65-4.492-22.78-4.492-8.12 0-15.71 1.496-22.76 4.492-7.06 2.988-13.19 7.051-18.41 12.187-5.21 5.137-9.31 11.192-12.3 18.176-2.99 6.973-4.49 14.441-4.49 22.422M1673.98 391.473h20.69v-16.797h.47a29.468 29.468 0 0 0 5.52 7.937 36.657 36.657 0 0 0 7.7 6.094c2.84 1.691 5.94 3.027 9.32 4.023 3.37.997 6.74 1.497 10.12 1.497 3.37 0 6.43-.461 9.2-1.379l-.92-22.313c-1.69.469-3.38.848-5.06 1.153-1.69.3-3.38.457-5.06.457-10.13 0-17.87-2.832-23.23-8.504-5.37-5.676-8.06-14.493-8.06-26.457v-54.735h-20.69v109.024M1835.9 345.926c-.15 4.597-.89 8.816-2.19 12.656-1.3 3.828-3.26 7.168-5.86 10-2.61 2.84-5.86 5.059-9.78 6.668-3.91 1.613-8.47 2.422-13.68 2.422-5.06 0-9.7-.965-13.92-2.879-4.22-1.914-7.78-4.406-10.69-7.473-2.92-3.074-5.18-6.484-6.79-10.234-1.61-3.758-2.41-7.481-2.41-11.16h65.32zm-65.32-16.555c0-4.754 1.04-9.09 3.11-12.996 2.07-3.906 4.78-7.246 8.16-10.012 3.37-2.754 7.27-4.902 11.73-6.433a41.94 41.94 0 0 1 13.8-2.305c6.44 0 12.04 1.504 16.78 4.492 4.76 2.988 9.13 6.934 13.12 11.844L1852.91 302c-11.49-14.875-27.59-22.316-48.29-22.316-8.59 0-16.37 1.464-23.35 4.375-6.98 2.91-12.88 6.933-17.71 12.07-4.83 5.137-8.55 11.191-11.15 18.176-2.61 6.972-3.91 14.519-3.91 22.656 0 8.125 1.42 15.672 4.26 22.656 2.83 6.973 6.74 13.028 11.73 18.164 4.98 5.137 10.91 9.16 17.82 12.078 6.9 2.911 14.41 4.368 22.54 4.368 9.66 0 17.82-1.692 24.49-5.059 6.67-3.371 12.16-7.785 16.45-13.223 4.29-5.449 7.4-11.582 9.31-18.398a76.57 76.57 0 0 0 2.88-20.82v-7.356h-87.4" fill="#fff"/></g></symbol></svg>