<?xml version="1.0" encoding="UTF-8" standalone="no"?>
<svg
   xmlns:dc="http://purl.org/dc/elements/1.1/"
   xmlns:cc="http://creativecommons.org/ns#"
   xmlns:rdf="http://www.w3.org/1999/02/22-rdf-syntax-ns#"
   xmlns:svg="http://www.w3.org/2000/svg"
   xmlns="http://www.w3.org/2000/svg"
   viewBox="0 0 260.10001 129.9375"
   height="129.9375"
   width="260.10001"
   xml:space="preserve"
   version="1.1"
   id="svg3355"><metadata
     id="metadata3361"><rdf:RDF><cc:Work
         rdf:about=""><dc:format>image/svg+xml</dc:format><dc:type
           rdf:resource="http://purl.org/dc/dcmitype/StillImage" /><dc:title></dc:title></cc:Work></rdf:RDF></metadata><defs
     id="defs3359" /><g
     transform="matrix(1.25,0,0,-1.25,0,129.9375)"
     id="g3363"><g
       transform="scale(0.1,0.1)"
       id="g3365"><path
         id="path3367"
         style="fill:#0a0a0d;fill-opacity:1;fill-rule:nonzero;stroke:none"
         d="m 5,5 2070.76,0 0,1029.46 L 5,1034.46 5,5 Z" /><path
         id="path3369"
         style="fill:none;stroke:#ffffff;stroke-width:10;stroke-linecap:butt;stroke-linejoin:miter;stroke-miterlimit:10;stroke-dasharray:none;stroke-opacity:1"
         d="m 5,5 2070.76,0 0,1029.46 L 5,1034.46 5,5 Z" /><path
         id="path3371"
         style="fill:#f5970f;fill-opacity:1;fill-rule:nonzero;stroke:none"
         d="m 329.395,604.984 c -15.098,0 -30.149,3.25 -44.29,9.719 -25.894,11.848 -45.632,33.067 -55.566,59.758 -9.937,26.684 -8.887,55.648 2.957,81.543 11.844,25.898 33.067,45.637 59.754,55.57 26.699,9.938 55.656,8.883 81.547,-2.957 25.898,-11.844 45.633,-33.066 55.566,-59.754 8.809,-23.644 8.938,-49.715 0.371,-73.41 l -15.804,5.715 c 7.215,19.957 7.105,41.914 -0.309,61.832 -8.375,22.484 -25,40.359 -46.812,50.34 -21.817,9.965 -46.215,10.859 -68.696,2.488 -22.48,-8.371 -40.359,-24.996 -50.34,-46.812 -9.972,-21.817 -10.859,-46.215 -2.492,-68.696 8.375,-22.48 25,-40.355 46.817,-50.336 21.812,-9.976 46.215,-10.863 68.695,-2.492 l 5.859,-15.746 c -12.117,-4.512 -24.703,-6.762 -37.257,-6.762" /><path
         id="path3373"
         style="fill:#ffffff;fill-opacity:1;fill-rule:nonzero;stroke:none"
         d="m 331.02,209.301 c -12.555,0 -25.137,2.246 -37.254,6.758 -26.692,9.933 -47.911,29.671 -59.754,55.566 -11.852,25.898 -12.903,54.863 -2.961,81.551 20.515,55.09 82.031,83.222 137.117,62.711 l -5.863,-15.746 c -46.41,17.289 -98.223,-6.418 -115.512,-52.828 -17.277,-46.415 6.422,-98.227 52.836,-115.508 22.488,-8.375 46.883,-7.485 68.691,2.492 21.817,9.976 38.442,27.855 46.813,50.336 7.418,19.918 7.527,41.875 0.308,61.832 l 15.805,5.715 c 8.567,-23.696 8.438,-49.766 -0.367,-73.41 -9.934,-26.688 -29.668,-47.911 -55.57,-59.754 -14.137,-6.465 -29.192,-9.715 -44.289,-9.715" /><path
         id="path3375"
         style="fill:#f5970f;fill-opacity:1;fill-rule:nonzero;stroke:none"
         d="m 720.637,603.07 c -12.336,0 -24.871,2.157 -37.09,6.707 l 5.859,15.746 c 46.418,-17.293 98.231,6.418 115.512,52.829 17.277,46.414 -6.422,98.226 -52.832,115.507 -22.484,8.368 -46.883,7.481 -68.691,-2.492 -21.821,-9.976 -38.446,-27.855 -46.817,-50.336 -7.418,-19.918 -7.523,-41.875 -0.308,-61.832 l -15.805,-5.715 c -8.567,23.696 -8.438,49.766 0.371,73.411 9.934,26.683 29.668,47.91 55.566,59.753 25.903,11.848 54.86,12.891 81.547,2.957 26.692,-9.933 47.91,-29.671 59.754,-55.566 11.848,-25.898 12.899,-54.863 2.961,-81.551 C 804.699,629.617 763.906,603.07 720.637,603.07" /><path
         id="path3377"
         style="fill:#f5970f;fill-opacity:1;fill-rule:nonzero;stroke:none"
         d="m 722.375,207.688 c -43.277,-0.008 -84.062,26.539 -100.027,69.417 -8.805,23.641 -8.934,49.715 -0.368,73.407 l 15.801,-5.715 c -7.215,-19.953 -7.105,-41.914 0.313,-61.832 17.281,-46.406 69.109,-70.094 115.508,-52.828 22.476,8.371 40.359,25 50.336,46.812 9.976,21.817 10.859,46.215 2.492,68.696 -17.278,46.41 -69.094,70.101 -115.508,52.832 l -5.863,15.746 c 55.105,20.515 116.605,-7.625 137.117,-62.715 9.937,-26.688 8.887,-55.649 -2.957,-81.547 -11.848,-25.898 -33.071,-45.633 -59.754,-55.57 -12.219,-4.547 -24.762,-6.703 -37.09,-6.703" /><path
         id="path3379"
         style="fill:#ffffff;fill-opacity:1;fill-rule:nonzero;stroke:none"
         d="m 724.77,342.184 c -2.153,0.175 -4.266,0.113 -6.325,-0.145 -91.547,74.524 -108.121,133.731 -111.066,150.977 l 0,39.632 c 2.926,17.125 19.285,75.622 109.137,149.407 2.195,-0.309 4.441,-0.43 6.742,-0.239 16.781,1.387 29.258,16.114 27.871,32.891 -1.387,16.781 -16.113,29.258 -32.891,27.871 -16.777,-1.387 -29.258,-16.113 -27.871,-32.89 0.16,-1.961 0.539,-3.852 1.051,-5.68 C 670.57,682.715 594.969,607.855 550.973,595.473 l -40.703,0 0.168,0.168 c -40.915,0 -128.907,87.101 -151.657,110.336 0.512,1.828 0.891,3.714 1.055,5.679 1.383,16.778 -11.094,31.504 -27.875,32.891 -16.777,1.387 -31.504,-11.09 -32.891,-27.871 -1.386,-16.778 11.09,-31.504 27.871,-32.895 2.301,-0.187 4.547,-0.066 6.743,0.239 107.371,-88.172 109.773,-154.528 109.773,-154.528 l 0,-40.863 c -4.816,-21.348 -24.969,-76.621 -108.262,-145.02 -2.195,0.309 -4.441,0.43 -6.742,0.239 -16.777,-1.383 -29.258,-16.114 -27.871,-32.891 1.387,-16.781 16.113,-29.258 32.895,-27.871 16.777,1.387 29.257,16.113 27.871,32.891 -0.164,1.961 -0.543,3.851 -1.051,5.679 21.836,22.305 103.777,103.426 146.504,109.895 l 38.109,0 c 43.817,-6.633 128.848,-91.75 148.035,-111.461 -0.519,-1.86 -0.902,-3.781 -1.066,-5.777 -1.387,-16.782 11.094,-31.508 27.871,-32.895 16.781,-1.387 31.508,11.094 32.895,27.871 1.386,16.781 -11.094,31.508 -27.875,32.895" /><path
         id="path3381"
         style="fill:#ffffff;fill-opacity:1;fill-rule:nonzero;stroke:none"
         d="m 1046.74,640.504 c -9.83,0 -18.72,-1.707 -26.64,-5.121 -7.94,-3.422 -14.63,-8.067 -20.1,-13.942 -5.465,-5.882 -9.703,-12.988 -12.699,-21.324 -3.02,-8.34 -4.516,-17.422 -4.516,-27.262 0,-9.839 1.496,-18.933 4.516,-27.261 2.996,-8.348 7.234,-15.449 12.699,-21.324 5.47,-5.879 12.16,-10.524 20.1,-13.942 7.92,-3.418 16.81,-5.121 26.64,-5.121 9.85,0 18.72,1.703 26.65,5.121 7.93,3.418 14.62,8.063 20.1,13.942 5.46,5.875 9.7,12.976 12.71,21.324 3,8.328 4.51,17.422 4.51,27.261 0,9.84 -1.51,18.922 -4.51,27.262 -3.01,8.336 -7.25,15.442 -12.71,21.324 -5.48,5.875 -12.17,10.52 -20.1,13.942 -7.93,3.414 -16.8,5.121 -26.65,5.121 z m 100.87,-258.301 -36.9,0 0,121.363 -0.82,0 c -6.57,-10.117 -15.99,-18.109 -28.29,-23.98 -12.3,-5.879 -25.42,-8.816 -39.36,-8.816 -15.04,0 -28.64,2.597 -40.8,7.793 -12.159,5.183 -22.549,12.359 -31.163,21.515 -8.601,9.156 -15.234,19.953 -19.882,32.395 -4.649,12.429 -6.961,25.894 -6.961,40.382 0,14.208 2.312,27.532 6.961,39.973 4.648,12.438 11.281,23.301 19.882,32.598 8.614,9.289 19.004,16.535 31.163,21.73 12.16,5.192 25.76,7.785 40.8,7.785 13.12,0 25.89,-2.863 38.33,-8.605 12.43,-5.738 22.21,-13.805 29.32,-24.191 l 0.82,0 0,27.882 36.9,0 0,-287.824" /><path
         id="path3383"
         style="fill:#ffffff;fill-opacity:1;fill-rule:nonzero;stroke:none"
         d="m 1375.56,475.691 -36.89,0 0,29.926 -0.82,0 c -4.65,-10.39 -12.72,-18.801 -24.19,-25.211 -11.49,-6.426 -24.75,-9.636 -39.78,-9.636 -9.57,0 -18.58,1.433 -27.06,4.304 -8.47,2.871 -15.92,7.305 -22.34,13.321 -6.43,6.011 -11.55,13.738 -15.37,23.164 -3.83,9.429 -5.75,20.566 -5.75,33.418 l 0,125.05 36.91,0 0,-114.8 c 0,-9.024 1.23,-16.747 3.69,-23.164 2.45,-6.426 5.73,-11.622 9.83,-15.583 4.1,-3.964 8.82,-6.835 14.15,-8.613 5.33,-1.777 10.86,-2.66 16.6,-2.66 7.65,0 14.76,1.231 21.32,3.688 6.57,2.46 12.31,6.355 17.22,11.683 4.92,5.332 8.75,12.102 11.48,20.297 2.73,8.199 4.11,17.902 4.11,29.113 l 0,100.039 36.89,0 0,-194.336" /><path
         id="path3385"
         style="fill:#ffffff;fill-opacity:1;fill-rule:nonzero;stroke:none"
         d="m 1536.28,569.168 c -8.75,0 -17.69,-0.484 -26.85,-1.438 -9.16,-0.96 -17.49,-2.804 -25.01,-5.535 -7.52,-2.734 -13.67,-6.558 -18.45,-11.48 -4.78,-4.918 -7.18,-11.211 -7.18,-18.86 0,-11.207 3.76,-19.269 11.28,-24.187 7.51,-4.922 17.7,-7.383 30.54,-7.383 10.12,0 18.72,1.703 25.83,5.125 7.11,3.414 12.85,7.856 17.23,13.328 4.36,5.461 7.51,11.543 9.42,18.242 1.91,6.696 2.87,13.325 2.87,19.887 l 0,12.301 -19.68,0 z m -104.14,77.078 c 10.39,9.567 22.41,16.738 36.09,21.524 13.66,4.781 27.32,7.171 40.99,7.171 14.21,0 26.45,-1.773 36.7,-5.324 10.25,-3.554 18.65,-8.34 25.22,-14.351 6.55,-6.016 11.4,-12.914 14.55,-20.703 3.14,-7.793 4.71,-15.926 4.71,-24.395 l 0,-99.223 c 0,-6.836 0.14,-13.121 0.41,-18.859 0.27,-5.742 0.68,-11.211 1.23,-16.395 l -32.8,0 c -0.82,9.832 -1.23,19.672 -1.23,29.516 l -0.82,0 c -8.19,-12.578 -17.9,-21.461 -29.11,-26.644 -11.21,-5.196 -24.19,-7.793 -38.95,-7.793 -9.02,0 -17.62,1.23 -25.83,3.691 -8.2,2.461 -15.37,6.152 -21.52,11.062 -6.15,4.922 -11,11 -14.56,18.25 -3.55,7.235 -5.32,15.641 -5.32,25.211 0,12.571 2.79,23.098 8.4,31.571 5.6,8.468 13.25,15.375 22.96,20.707 9.69,5.328 21.04,9.156 34.03,11.48 12.98,2.321 26.85,3.485 41.61,3.485 l 27.06,0 0,8.199 c 0,4.922 -0.96,9.84 -2.87,14.762 -1.91,4.917 -4.79,9.359 -8.6,13.324 -3.84,3.961 -8.62,7.105 -14.36,9.429 -5.73,2.321 -12.57,3.485 -20.5,3.485 -7.11,0 -13.32,-0.688 -18.65,-2.051 -5.33,-1.371 -10.19,-3.074 -14.56,-5.125 -4.38,-2.051 -8.34,-4.445 -11.88,-7.176 -3.56,-2.73 -6.98,-5.332 -10.26,-7.793 l -22.14,22.965" /><path
         id="path3387"
         style="fill:#ffffff;fill-opacity:1;fill-rule:nonzero;stroke:none"
         d="m 1738,505.207 c 9.85,0 18.72,1.703 26.65,5.121 7.92,3.418 14.62,8.063 20.09,13.942 5.47,5.875 9.7,12.976 12.71,21.324 3,8.328 4.52,17.422 4.52,27.261 0,9.84 -1.52,18.922 -4.52,27.262 -3.01,8.336 -7.24,15.442 -12.71,21.324 -5.47,5.875 -12.17,10.52 -20.09,13.942 -7.93,3.414 -16.8,5.121 -26.65,5.121 -9.84,0 -18.72,-1.707 -26.65,-5.121 -7.93,-3.422 -14.63,-8.067 -20.09,-13.942 -5.47,-5.882 -9.7,-12.988 -12.71,-21.324 -3.01,-8.34 -4.51,-17.422 -4.51,-27.262 0,-9.839 1.5,-18.933 4.51,-27.261 3.01,-8.348 7.24,-15.449 12.71,-21.324 5.46,-5.879 12.16,-10.524 20.09,-13.942 7.93,-3.418 16.81,-5.121 26.65,-5.121 z m 100.86,-29.516 -36.89,0 0,27.875 -0.82,0 c -7.12,-10.39 -16.89,-18.453 -29.32,-24.183 -12.44,-5.742 -25.21,-8.613 -38.34,-8.613 -15.03,0 -28.63,2.597 -40.79,7.793 -12.17,5.183 -22.55,12.425 -31.16,21.722 -8.62,9.285 -15.25,20.094 -19.89,32.395 -4.64,12.297 -6.97,25.687 -6.97,40.175 0,14.485 2.33,27.942 6.97,40.383 4.64,12.438 11.27,23.235 19.89,32.395 8.61,9.152 18.99,16.328 31.16,21.523 12.16,5.192 25.76,7.785 40.79,7.785 13.95,0 27.06,-2.937 39.37,-8.812 12.29,-5.879 21.72,-13.875 28.29,-23.984 l 0.82,0 0,143.503 36.89,0 0,-309.957" /><path
         id="path3389"
         style="fill:#ffffff;fill-opacity:1;fill-rule:nonzero;stroke:none"
         d="m 1504.47,362.488 c -3.84,3.985 -7.86,7.012 -12.08,9.082 -4.22,2.071 -9.24,3.106 -15.06,3.106 -5.68,0 -10.63,-1.035 -14.84,-3.106 -4.21,-2.07 -7.74,-4.902 -10.58,-8.507 -2.83,-3.602 -4.98,-7.743 -6.44,-12.422 -1.46,-4.676 -2.18,-9.539 -2.18,-14.598 0,-5.07 0.83,-9.855 2.52,-14.375 1.69,-4.531 4.07,-8.477 7.13,-11.848 3.07,-3.379 6.75,-6.023 11.05,-7.937 4.29,-1.914 9.12,-2.871 14.49,-2.871 5.82,0 10.8,1.035 14.94,3.105 4.14,2.071 7.98,5.098 11.51,9.082 l 14.71,-14.719 c -5.36,-5.984 -11.61,-10.273 -18.74,-12.878 -7.13,-2.61 -14.69,-3.918 -22.65,-3.918 -8.44,0 -16.15,1.386 -23.12,4.14 -6.98,2.766 -13,6.633 -18.06,11.621 -5.05,4.981 -8.96,10.957 -11.72,17.942 -2.77,6.972 -4.15,14.676 -4.15,23.113 0,8.43 1.38,16.172 4.15,23.223 2.76,7.05 6.63,13.117 11.61,18.175 4.98,5.059 10.96,9.004 17.94,11.844 6.98,2.832 14.75,4.258 23.35,4.258 7.96,0 15.59,-1.426 22.88,-4.258 7.28,-2.84 13.61,-7.168 18.97,-12.996 l -15.63,-14.258" /><path
         id="path3391"
         style="fill:#ffffff;fill-opacity:1;fill-rule:nonzero;stroke:none"
         d="m 1554.14,336.961 c 0,-5.52 0.84,-10.625 2.53,-15.293 1.69,-4.688 4.07,-8.672 7.13,-11.965 3.07,-3.301 6.83,-5.906 11.27,-7.82 4.46,-1.914 9.44,-2.871 14.95,-2.871 5.52,0 10.5,0.957 14.95,2.871 4.45,1.914 8.21,4.519 11.27,7.82 3.07,3.293 5.44,7.277 7.13,11.965 1.69,4.668 2.53,9.773 2.53,15.293 0,5.516 -0.84,10.613 -2.53,15.293 -1.69,4.676 -4.06,8.66 -7.13,11.961 -3.06,3.293 -6.82,5.898 -11.27,7.824 -4.45,1.914 -9.43,2.871 -14.95,2.871 -5.51,0 -10.49,-0.957 -14.95,-2.871 -4.44,-1.926 -8.2,-4.531 -11.27,-7.824 -3.06,-3.301 -5.44,-7.285 -7.13,-11.961 -1.69,-4.68 -2.53,-9.777 -2.53,-15.293 z m -22.08,0 c 0,7.969 1.5,15.41 4.49,22.305 2.99,6.902 7.09,12.957 12.3,18.172 5.22,5.214 11.35,9.316 18.41,12.304 7.05,2.988 14.64,4.485 22.76,4.485 8.13,0 15.72,-1.497 22.78,-4.485 7.05,-2.988 13.18,-7.09 18.4,-12.304 5.21,-5.215 9.31,-11.27 12.3,-18.172 2.99,-6.895 4.48,-14.336 4.48,-22.305 0,-7.981 -1.49,-15.449 -4.48,-22.422 -2.99,-6.984 -7.09,-13.039 -12.3,-18.176 -5.22,-5.136 -11.35,-9.199 -18.4,-12.187 -7.06,-2.996 -14.65,-4.492 -22.78,-4.492 -8.12,0 -15.71,1.496 -22.76,4.492 -7.06,2.988 -13.19,7.051 -18.41,12.187 -5.21,5.137 -9.31,11.192 -12.3,18.176 -2.99,6.973 -4.49,14.441 -4.49,22.422" /><path
         id="path3393"
         style="fill:#ffffff;fill-opacity:1;fill-rule:nonzero;stroke:none"
         d="m 1673.98,391.473 20.69,0 0,-16.797 0.47,0 c 1.38,2.91 3.21,5.554 5.52,7.937 2.29,2.375 4.86,4.407 7.7,6.094 2.84,1.691 5.94,3.027 9.32,4.023 3.37,0.997 6.74,1.497 10.12,1.497 3.37,0 6.43,-0.461 9.2,-1.379 l -0.92,-22.313 c -1.69,0.469 -3.38,0.848 -5.06,1.153 -1.69,0.3 -3.38,0.457 -5.06,0.457 -10.13,0 -17.87,-2.832 -23.23,-8.504 -5.37,-5.676 -8.06,-14.493 -8.06,-26.457 l 0,-54.735 -20.69,0 0,109.024" /><path
         id="path3395"
         style="fill:#ffffff;fill-opacity:1;fill-rule:nonzero;stroke:none"
         d="m 1835.9,345.926 c -0.15,4.597 -0.89,8.816 -2.19,12.656 -1.3,3.828 -3.26,7.168 -5.86,10 -2.61,2.84 -5.86,5.059 -9.78,6.668 -3.91,1.613 -8.47,2.422 -13.68,2.422 -5.06,0 -9.7,-0.965 -13.92,-2.879 -4.22,-1.914 -7.78,-4.406 -10.69,-7.473 -2.92,-3.074 -5.18,-6.484 -6.79,-10.234 -1.61,-3.758 -2.41,-7.481 -2.41,-11.16 l 65.32,0 z m -65.32,-16.555 c 0,-4.754 1.04,-9.09 3.11,-12.996 2.07,-3.906 4.78,-7.246 8.16,-10.012 3.37,-2.754 7.27,-4.902 11.73,-6.433 4.44,-1.535 9.04,-2.305 13.8,-2.305 6.44,0 12.04,1.504 16.78,4.492 4.76,2.988 9.13,6.934 13.12,11.844 L 1852.91,302 c -11.49,-14.875 -27.59,-22.316 -48.29,-22.316 -8.59,0 -16.37,1.464 -23.35,4.375 -6.98,2.91 -12.88,6.933 -17.71,12.07 -4.83,5.137 -8.55,11.191 -11.15,18.176 -2.61,6.972 -3.91,14.519 -3.91,22.656 0,8.125 1.42,15.672 4.26,22.656 2.83,6.973 6.74,13.028 11.73,18.164 4.98,5.137 10.91,9.16 17.82,12.078 6.9,2.911 14.41,4.368 22.54,4.368 9.66,0 17.82,-1.692 24.49,-5.059 6.67,-3.371 12.16,-7.785 16.45,-13.223 4.29,-5.449 7.4,-11.582 9.31,-18.398 1.92,-6.828 2.88,-13.77 2.88,-20.82 l 0,-7.356 -87.4,0" /></g></g></svg>