<svg xmlns="http://www.w3.org/2000/svg" viewBox="0 0 208.08 103.95"><defs><style>.a{fill:#010913;stroke:#fff;stroke-miterlimit:10;}.b{fill:#e0a01a;}.c{fill:#fff;}</style></defs><title>quadcore-logo_neg_hor_160611</title><rect class="a" x="72.01" y="-26.3" width="102.95" height="207.08" transform="translate(26.8 175.45) rotate(-90)"/><path class="b" d="M52.38,68.71a10.67,10.67,0,1,1,10-7l-1.58-.57a9,9,0,1,0-5.31,5.37L56.11,68A10.66,10.66,0,0,1,52.38,68.71Z" transform="translate(-19.44 -25.27)"/><path class="c" d="M52.55,108.28a10.66,10.66,0,1,1,3.71-20.66L55.67,89.2A9,9,0,1,0,61,94.57L62.57,94A10.67,10.67,0,0,1,52.55,108.28Z" transform="translate(-19.44 -25.27)"/><path class="b" d="M91.51,68.91a10.6,10.6,0,0,1-3.71-.67l0.59-1.57a9,9,0,1,0-5.31-5.37l-1.58.57A10.66,10.66,0,1,1,91.51,68.91Z" transform="translate(-19.44 -25.27)"/><path class="b" d="M91.68,108.44a10.66,10.66,0,0,1-10-14.28l1.58,0.57a9,9,0,1,0,5.31-5.37l-0.59-1.57A10.66,10.66,0,1,1,91.68,108.44Z" transform="translate(-19.44 -25.27)"/><path class="c" d="M91.92,95a3.06,3.06,0,0,0-.63,0c-9.15-7.45-10.81-13.37-11.11-15.1v-4c0.29-1.71,1.93-7.56,10.91-14.94a3.07,3.07,0,1,0-2.51-2.2c-2.08,2.13-9.64,9.62-14,10.85H70.47l0,0c-4.09,0-12.89-8.71-15.17-11a3.07,3.07,0,1,0-2.51,2.2c10.74,8.82,11,15.45,11,15.45v4.09C63.31,82.48,61.29,88,53,94.85A3.07,3.07,0,1,0,55.47,97c2.18-2.23,10.38-10.34,14.65-11h3.81c4.38,0.66,12.88,9.18,14.8,11.15A3,3,0,1,0,91.92,95Z" transform="translate(-19.44 -25.27)"/><path class="c" d="M134.2,91h-3.69V78.86h-0.08a6.72,6.72,0,0,1-2.83,2.4,9,9,0,0,1-3.94.88,10.29,10.29,0,0,1-4.08-.78,9.14,9.14,0,0,1-3.12-2.15,9.55,9.55,0,0,1-2-3.24,11.94,11.94,0,0,1,0-8,9.79,9.79,0,0,1,2-3.26,9,9,0,0,1,3.12-2.17,10.29,10.29,0,0,1,4.08-.78,9.05,9.05,0,0,1,3.83.86A7,7,0,0,1,130.43,65h0.08V62.21h3.69V91ZM124.12,65.16a6.67,6.67,0,0,0-2.66.51,5.89,5.89,0,0,0-2,1.39,6.14,6.14,0,0,0-1.27,2.13,8.46,8.46,0,0,0,0,5.45,6.12,6.12,0,0,0,1.27,2.13,5.88,5.88,0,0,0,2,1.39,7.19,7.19,0,0,0,5.33,0,5.89,5.89,0,0,0,2-1.39,6.15,6.15,0,0,0,1.27-2.13,8.46,8.46,0,0,0,0-5.45,6.17,6.17,0,0,0-1.27-2.13,5.91,5.91,0,0,0-2-1.39A6.67,6.67,0,0,0,124.12,65.16Z" transform="translate(-19.44 -25.27)"/><path class="c" d="M157,81.64h-3.69v-3h-0.08a5.43,5.43,0,0,1-2.42,2.52,8,8,0,0,1-4,1,8.38,8.38,0,0,1-2.71-.43,6.09,6.09,0,0,1-2.23-1.33,6.42,6.42,0,0,1-1.54-2.32,8.86,8.86,0,0,1-.57-3.34V62.21h3.69V73.69a6.48,6.48,0,0,0,.37,2.32,4.21,4.21,0,0,0,1,1.56,3.69,3.69,0,0,0,1.42.86,5.21,5.21,0,0,0,1.66.27,6,6,0,0,0,2.13-.37,4.44,4.44,0,0,0,1.72-1.17,5.52,5.52,0,0,0,1.15-2,9.26,9.26,0,0,0,.41-2.91v-10H157V81.64Z" transform="translate(-19.44 -25.27)"/><path class="c" d="M162.66,64.59a10.28,10.28,0,0,1,3.61-2.15,12.34,12.34,0,0,1,4.1-.72,11.26,11.26,0,0,1,3.67.53,7.15,7.15,0,0,1,2.52,1.44A5.68,5.68,0,0,1,178,65.76a6.46,6.46,0,0,1,.47,2.44v9.92q0,1,0,1.89t0.12,1.64h-3.28q-0.12-1.48-.12-3h-0.08a7.05,7.05,0,0,1-2.91,2.66,9.17,9.17,0,0,1-3.89.78,8.94,8.94,0,0,1-2.58-.37,6.32,6.32,0,0,1-2.15-1.11,5.28,5.28,0,0,1-1.46-1.82,6.3,6.3,0,0,1,.31-5.68,6.37,6.37,0,0,1,2.3-2.07,11.08,11.08,0,0,1,3.4-1.15,23.66,23.66,0,0,1,4.16-.35H175V68.77a4,4,0,0,0-.29-1.48,4,4,0,0,0-.86-1.33,4.12,4.12,0,0,0-1.44-.94,5.46,5.46,0,0,0-2-.35,7.58,7.58,0,0,0-1.87.21,8.3,8.3,0,0,0-1.46.51,6.38,6.38,0,0,0-1.19.72l-1,.78Zm10.41,7.71a26,26,0,0,0-2.69.14,10.54,10.54,0,0,0-2.5.55A4.81,4.81,0,0,0,166,74.14a2.59,2.59,0,0,0-.72,1.89,2.67,2.67,0,0,0,1.13,2.42,5.51,5.51,0,0,0,3.05.74,5.91,5.91,0,0,0,2.58-.51,4.84,4.84,0,0,0,1.72-1.33,5.17,5.17,0,0,0,.94-1.82,7.21,7.21,0,0,0,.29-2V72.3h-2Z" transform="translate(-19.44 -25.27)"/><path class="c" d="M203.33,81.64h-3.69V78.86h-0.08a7,7,0,0,1-2.93,2.42,9.05,9.05,0,0,1-3.83.86,10.28,10.28,0,0,1-4.08-.78,9,9,0,0,1-3.12-2.17,9.79,9.79,0,0,1-2-3.24,11.27,11.27,0,0,1-.7-4,11.45,11.45,0,0,1,.7-4,9.53,9.53,0,0,1,2-3.24,9.16,9.16,0,0,1,3.12-2.15,10.29,10.29,0,0,1,4.08-.78,9,9,0,0,1,3.94.88,6.74,6.74,0,0,1,2.83,2.4h0.08V50.65h3.69v31Zm-10.09-3a6.67,6.67,0,0,0,2.67-.51,5.89,5.89,0,0,0,2-1.39,6.15,6.15,0,0,0,1.27-2.13,8.46,8.46,0,0,0,0-5.45,6.17,6.17,0,0,0-1.27-2.13,5.9,5.9,0,0,0-2-1.39,7.19,7.19,0,0,0-5.33,0,5.89,5.89,0,0,0-2,1.39,6.16,6.16,0,0,0-1.27,2.13,8.46,8.46,0,0,0,0,5.45,6.14,6.14,0,0,0,1.27,2.13,5.87,5.87,0,0,0,2,1.39A6.67,6.67,0,0,0,193.24,78.69Z" transform="translate(-19.44 -25.27)"/><path class="c" d="M169.89,93a4.35,4.35,0,0,0-1.21-.91,3.39,3.39,0,0,0-1.51-.31,3.33,3.33,0,0,0-1.48.31,3,3,0,0,0-1.06.85,3.83,3.83,0,0,0-.64,1.24,4.85,4.85,0,0,0-.22,1.46A4.07,4.07,0,0,0,164,97a3.61,3.61,0,0,0,.71,1.18,3.27,3.27,0,0,0,1.1.79,3.52,3.52,0,0,0,1.45.29,3.31,3.31,0,0,0,1.49-.31,3.83,3.83,0,0,0,1.15-.91l1.47,1.47a4.62,4.62,0,0,1-1.87,1.29,6.55,6.55,0,0,1-2.27.39,6.24,6.24,0,0,1-2.31-.41,5.33,5.33,0,0,1-1.81-1.16A5.13,5.13,0,0,1,162,97.87a6.22,6.22,0,0,1-.41-2.31,6.31,6.31,0,0,1,.41-2.32,5.18,5.18,0,0,1,3-3,6.16,6.16,0,0,1,2.33-.43,6.26,6.26,0,0,1,2.29.43,5,5,0,0,1,1.9,1.3Z" transform="translate(-19.44 -25.27)"/><path class="c" d="M172.65,95.52a5.55,5.55,0,0,1,.45-2.23,5.82,5.82,0,0,1,1.23-1.82,5.86,5.86,0,0,1,8.23,0,5.81,5.81,0,0,1,1.23,1.82,5.55,5.55,0,0,1,.45,2.23,5.67,5.67,0,0,1-1.68,4.06,5.84,5.84,0,0,1-1.84,1.22,6,6,0,0,1-4.55,0,5.83,5.83,0,0,1-1.84-1.22A5.67,5.67,0,0,1,172.65,95.52Zm2.21,0a4.47,4.47,0,0,0,.25,1.53,3.44,3.44,0,0,0,.71,1.2A3.29,3.29,0,0,0,177,99a4,4,0,0,0,3,0,3.29,3.29,0,0,0,1.13-.78,3.44,3.44,0,0,0,.71-1.2,4.75,4.75,0,0,0,0-3.06,3.46,3.46,0,0,0-.71-1.2,3.32,3.32,0,0,0-1.13-.78,4,4,0,0,0-3,0,3.32,3.32,0,0,0-1.13.78,3.46,3.46,0,0,0-.71,1.2A4.47,4.47,0,0,0,174.86,95.52Z" transform="translate(-19.44 -25.27)"/><path class="c" d="M186.84,90.07h2.07v1.68h0a3,3,0,0,1,.55-0.79,3.69,3.69,0,0,1,.77-0.61,4,4,0,0,1,.93-0.4,3.55,3.55,0,0,1,1-.15,2.91,2.91,0,0,1,.92.14l-0.09,2.23L192.55,92a2.87,2.87,0,0,0-.51,0,3,3,0,0,0-2.32.85,3.74,3.74,0,0,0-.81,2.65V101h-2.07V90.07Z" transform="translate(-19.44 -25.27)"/><path class="c" d="M196.5,96.28a2.73,2.73,0,0,0,.31,1.3,3.24,3.24,0,0,0,.82,1,3.78,3.78,0,0,0,1.17.64,4.2,4.2,0,0,0,1.38.23,3.08,3.08,0,0,0,1.68-.45,5.4,5.4,0,0,0,1.31-1.18l1.56,1.2a5.76,5.76,0,0,1-4.83,2.23,6,6,0,0,1-2.33-.44,5.08,5.08,0,0,1-1.77-1.21,5.36,5.36,0,0,1-1.12-1.82,6.42,6.42,0,0,1-.39-2.27,6,6,0,0,1,.43-2.27,5.6,5.6,0,0,1,1.17-1.82,5.36,5.36,0,0,1,1.78-1.21,5.74,5.74,0,0,1,2.25-.44,5.39,5.39,0,0,1,2.45.51A4.83,4.83,0,0,1,204,91.62a5.22,5.22,0,0,1,.93,1.84,7.68,7.68,0,0,1,.29,2.08v0.74H196.5ZM203,94.62a4.4,4.4,0,0,0-.22-1.27,2.79,2.79,0,0,0-.59-1,2.69,2.69,0,0,0-1-.67,3.57,3.57,0,0,0-1.37-.24,3.33,3.33,0,0,0-1.39.29,3.38,3.38,0,0,0-1.07.75,3.46,3.46,0,0,0-.68,1,2.82,2.82,0,0,0-.24,1.12H203Z" transform="translate(-19.44 -25.27)"/></svg>