<?xml version="1.0" encoding="UTF-8" standalone="no"?>
<svg
   xmlns:dc="http://purl.org/dc/elements/1.1/"
   xmlns:cc="http://creativecommons.org/ns#"
   xmlns:rdf="http://www.w3.org/1999/02/22-rdf-syntax-ns#"
   xmlns:svg="http://www.w3.org/2000/svg"
   xmlns="http://www.w3.org/2000/svg"
   viewBox="0 0 1250 500"
   height="500"
   width="1250"
   xml:space="preserve"
   version="1.1"
   id="svg2"><metadata
     id="metadata8"><rdf:RDF><cc:Work
         rdf:about=""><dc:format>image/svg+xml</dc:format><dc:type
           rdf:resource="http://purl.org/dc/dcmitype/StillImage" /><dc:title></dc:title></cc:Work></rdf:RDF></metadata><defs
     id="defs6"><clipPath
       id="clipPath20"
       clipPathUnits="userSpaceOnUse"><path
         id="path22"
         d="M 0,400 1000,400 1000,0 0,0 0,400 Z" /></clipPath></defs><g
     transform="matrix(1.25,0,0,-1.25,0,500)"
     id="g10"><g
       transform="translate(184.485,114.6335)"
       id="g12"><path
         id="path14"
         style="fill:#ff9f19;fill-opacity:1;fill-rule:nonzero;stroke:none"
         d="m 0,0 -125.105,228.921 53.568,0 95.16,-180.012 95.166,180.012 53.9,0 L 46.914,0 0,0 Z" /></g><g
       id="g16"><g
         clip-path="url(#clipPath20)"
         id="g18"><g
           transform="translate(759.6136,114.6335)"
           id="g24"><path
             id="path26"
             style="fill:#13284c;fill-opacity:1;fill-rule:nonzero;stroke:none"
             d="m 0,0 c -12.646,0 -23.35,1.332 -32.11,3.99 -8.766,2.665 -15.863,6.934 -21.296,12.816 -5.433,5.874 -9.371,13.361 -11.808,22.459 -2.443,9.091 -3.659,20.178 -3.659,33.273 l 0,156.383 44.581,0 0,-156.383 c 0,-9.768 1.833,-16.806 5.491,-21.134 3.659,-4.321 9.924,-6.485 18.801,-6.485 l 111.796,0 c 8.871,0 15.142,2.164 18.801,6.485 3.659,4.328 5.491,11.366 5.491,21.134 l 0,156.383 44.919,0 0,-156.383 c 0,-13.095 -1.222,-24.182 -3.659,-33.273 C 174.905,30.167 170.966,22.68 165.534,16.806 160.094,10.924 152.939,6.655 144.075,3.99 135.198,1.332 124.443,0 111.796,0 L 0,0 Z" /></g><g
           transform="translate(77.141,56.4451)"
           id="g28"><path
             id="path30"
             style="fill:#13284c;fill-opacity:1;fill-rule:nonzero;stroke:none"
             d="m 0,0 -17.761,32.506 7.601,0 13.514,-25.56 13.514,25.56 7.648,0 L 6.661,0 0,0 Z" /></g><g
           transform="translate(106.9078,56.4451)"
           id="g32"><path
             id="path34"
             style="fill:#13284c;fill-opacity:1;fill-rule:nonzero;stroke:none"
             d="m 0,0 0,32.506 31.223,0 0,-6.43 -24.846,0 0,-7.177 24.138,0 0,-5.246 -24.138,0 0,-7.276 24.846,0 L 31.223,0 0,0 Z" /></g><g
           transform="translate(178.5223,65.8452)"
           id="g36"><path
             id="path38"
             style="fill:#13284c;fill-opacity:1;fill-rule:nonzero;stroke:none"
             d="M 0,0 C 0,-1.729 -0.191,-3.197 -0.569,-4.392 -0.946,-5.588 -1.549,-6.557 -2.385,-7.3 -3.22,-8.036 -4.317,-8.576 -5.669,-8.907 -7.021,-9.238 -8.663,-9.4 -10.584,-9.4 l -22.96,0 c 0.064,1.068 0.133,2.135 0.214,3.191 0.076,1.051 0.151,2.118 0.215,3.186 l 22.108,0 c 0.853,0 1.566,0.058 2.147,0.168 0.586,0.11 1.044,0.308 1.375,0.586 0.331,0.285 0.563,0.656 0.708,1.114 0.139,0.453 0.209,1.027 0.209,1.724 0,1.352 -0.296,2.292 -0.894,2.808 -0.603,0.522 -1.735,0.783 -3.406,0.783 l -13.178,0 c -1.955,0 -3.586,0.169 -4.891,0.517 -1.306,0.348 -2.362,0.882 -3.162,1.607 -0.807,0.725 -1.381,1.636 -1.724,2.739 -0.348,1.102 -0.522,2.396 -0.522,3.876 l 0,1.085 c 0,1.607 0.174,2.994 0.522,4.16 0.343,1.161 0.929,2.107 1.747,2.832 0.818,0.725 1.897,1.259 3.232,1.607 1.34,0.348 3,0.523 4.984,0.523 l 22.775,0 C -1.213,22.003 -1.34,20.924 -1.462,19.868 -1.59,18.812 -1.735,17.732 -1.892,16.63 l -21.968,0 c -1.572,0 -2.634,-0.267 -3.185,-0.801 -0.552,-0.539 -0.83,-1.45 -0.83,-2.744 0,-1.289 0.278,-2.211 0.83,-2.762 0.551,-0.552 1.613,-0.824 3.185,-0.824 l 12.992,0 C -8.849,9.499 -7.149,9.33 -5.762,9 -4.375,8.669 -3.261,8.158 -2.408,7.468 -1.561,6.772 -0.946,5.901 -0.569,4.845 -0.191,3.789 0,2.553 0,1.137 L 0,0 Z" /></g><g
           transform="translate(195.2509,56.4451)"
           id="g40"><path
             id="path42"
             style="fill:#13284c;fill-opacity:1;fill-rule:nonzero;stroke:none"
             d="m 0,0 0,26.076 -11.86,0 0,6.43 30.091,0 0,-6.43 -11.854,0 L 6.377,0 0,0 Z" /></g><g
           transform="translate(225.627,69.3905)"
           id="g44"><path
             id="path46"
             style="fill:#13284c;fill-opacity:1;fill-rule:nonzero;stroke:none"
             d="m 0,0 0,-12.945 -6.377,0 0,32.505 30.515,0 0,-6.429 -24.138,0 0,-7.462 23.622,0 L 23.622,0 0,0 Z" /></g><g
           transform="translate(287.2785,78.367)"
           id="g48"><path
             id="path50"
             style="fill:#13284c;fill-opacity:1;fill-rule:nonzero;stroke:none"
             d="m 0,0 c 0,1.607 -0.284,2.698 -0.853,3.284 -0.569,0.58 -1.561,0.871 -2.977,0.871 l -17.1,0 c -1.415,0 -2.408,-0.291 -2.976,-0.871 C -24.475,2.698 -24.759,1.607 -24.759,0 l 0,-11.437 c 0,-0.818 0.064,-1.485 0.191,-2.007 0.128,-0.517 0.337,-0.935 0.638,-1.248 0.296,-0.319 0.691,-0.54 1.178,-0.661 0.488,-0.128 1.097,-0.192 1.822,-0.192 l 17.1,0 c 1.451,0 2.449,0.284 3,0.853 0.551,0.563 0.83,1.654 0.83,3.255 L 0,0 Z m -20.93,-21.922 c -1.984,0 -3.62,0.174 -4.914,0.522 -1.294,0.343 -2.333,0.929 -3.116,1.747 -0.789,0.818 -1.341,1.903 -1.654,3.261 -0.319,1.352 -0.476,3.023 -0.476,5.007 l 0,11.431 c 0,1.985 0.157,3.656 0.476,5.008 0.313,1.352 0.865,2.443 1.654,3.261 0.783,0.818 1.822,1.398 3.116,1.747 1.294,0.348 2.93,0.522 4.914,0.522 l 17.147,0 c 1.92,0 3.539,-0.174 4.845,-0.522 C 2.367,9.713 3.418,9.133 4.201,8.315 4.99,7.497 5.547,6.406 5.878,5.054 6.209,3.702 6.377,2.031 6.377,0.046 l 0,-11.431 c 0,-1.984 -0.168,-3.655 -0.499,-5.007 -0.331,-1.358 -0.888,-2.443 -1.677,-3.261 -0.783,-0.818 -1.834,-1.404 -3.139,-1.747 -1.306,-0.348 -2.925,-0.522 -4.845,-0.522 l -17.147,0 z" /></g><g
           transform="translate(301.1697,56.4451)"
           id="g52"><path
             id="path54"
             style="fill:#13284c;fill-opacity:1;fill-rule:nonzero;stroke:none"
             d="m 0,0 0,32.506 6.377,0 0,-26.083 24.469,0 L 30.846,0 0,0 Z" /></g><g
           transform="translate(368.7689,78.367)"
           id="g56"><path
             id="path58"
             style="fill:#13284c;fill-opacity:1;fill-rule:nonzero;stroke:none"
             d="m 0,0 c 0,1.607 -0.284,2.698 -0.853,3.284 -0.563,0.58 -1.555,0.871 -2.977,0.871 l -20.923,0 0,-19.7 20.923,0 c 1.451,0 2.449,0.284 3,0.853 0.551,0.563 0.83,1.654 0.83,3.255 L 0,0 Z m -31.183,-21.922 0,32.506 27.353,0 c 1.985,0 3.633,-0.174 4.938,-0.522 C 2.414,9.713 3.458,9.122 4.23,8.292 5.002,7.456 5.553,6.371 5.884,5.031 6.214,3.69 6.377,2.031 6.377,0.046 l 0,-11.431 c 0,-1.984 -0.163,-3.655 -0.493,-5.007 -0.331,-1.358 -0.882,-2.443 -1.654,-3.261 -0.772,-0.818 -1.816,-1.404 -3.122,-1.747 -1.305,-0.348 -2.953,-0.522 -4.938,-0.522 l -27.353,0 z" /></g><g
           transform="translate(465.9633,300.5753)"
           id="g60"><path
             id="path62"
             style="fill:#ff9f19;fill-opacity:1;fill-rule:nonzero;stroke:none"
             d="m 0,0 0,42.98 -65.247,0 0,-228.922 65.247,0 0,42.488 -22.759,0 L -22.759,0 0,0 Z" /></g><g
           transform="translate(634.2703,285.4939)"
           id="g64"><path
             id="path66"
             style="fill:#13284c;fill-opacity:1;fill-rule:nonzero;stroke:none"
             d="M 0,0 0,0.006 C -4.996,17.471 -12.649,35.01 -22.74,52.132 l -3.509,5.929 -46.588,0 11.006,-18.292 c 10.035,-16.674 17.483,-33.031 22.143,-48.616 4.616,-15.436 6.956,-31.395 6.956,-47.428 0,-16.034 -2.34,-31.992 -6.95,-47.435 -4.679,-15.604 -12.207,-32.035 -22.373,-48.828 l -11.1,-18.322 46.091,0 3.521,5.829 c 10.459,17.322 18.335,35.053 23.412,52.698 5.102,17.732 7.684,36.677 7.684,56.3 C 7.553,-36.409 5.015,-17.558 0,0" /></g><g
           transform="translate(431.899,78.367)"
           id="g68"><path
             id="path70"
             style="fill:#ff9f19;fill-opacity:1;fill-rule:nonzero;stroke:none"
             d="m 0,0 c 0,1.607 -0.284,2.698 -0.853,3.284 -0.563,0.58 -1.555,0.871 -2.977,0.871 l -20.923,0 0,-19.7 20.923,0 c 1.451,0 2.449,0.284 3,0.853 0.551,0.563 0.83,1.654 0.83,3.255 L 0,0 Z m -31.183,-21.922 0,32.506 27.353,0 c 1.985,0 3.633,-0.174 4.938,-0.522 C 2.414,9.713 3.458,9.122 4.23,8.292 5.002,7.456 5.553,6.371 5.884,5.031 6.214,3.69 6.377,2.031 6.377,0.046 l 0,-11.431 c 0,-1.984 -0.163,-3.655 -0.493,-5.007 -0.331,-1.358 -0.882,-2.443 -1.654,-3.261 -0.772,-0.818 -1.816,-1.404 -3.122,-1.747 -1.305,-0.348 -2.953,-0.522 -4.938,-0.522 l -27.353,0 z" /></g><path
           id="path72"
           style="fill:#ff9f19;fill-opacity:1;fill-rule:nonzero;stroke:none"
           d="m 445.883,88.951 6.377,0 0,-32.506 -6.377,0 0,32.506 z" /><g
           transform="translate(490.2431,56.4451)"
           id="g74"><path
             id="path76"
             style="fill:#ff9f19;fill-opacity:1;fill-rule:nonzero;stroke:none"
             d="M 0,0 -0.186,3.969 C -0.279,3.493 -0.493,3.023 -0.824,2.553 -1.155,2.077 -1.578,1.654 -2.101,1.277 -2.617,0.899 -3.244,0.592 -3.969,0.354 -4.688,0.116 -5.512,0 -6.423,0 l -13.793,0 c -2.019,0 -3.679,0.162 -4.984,0.493 -1.312,0.331 -2.339,0.905 -3.099,1.729 -0.754,0.819 -1.282,1.898 -1.578,3.232 -0.302,1.341 -0.453,3.035 -0.453,5.083 l 0,11.431 c 0,1.95 0.151,3.598 0.453,4.938 0.296,1.335 0.824,2.426 1.578,3.261 0.76,0.83 1.787,1.428 3.099,1.793 1.305,0.36 2.965,0.546 4.984,0.546 l 16.485,0 c 1.195,0 2.24,-0.169 3.122,-0.499 C 0.267,31.676 1.027,31.264 1.654,30.776 2.286,30.289 2.791,29.773 3.168,29.221 3.545,28.67 3.83,28.171 4.015,27.73 L 0,23.576 c -0.313,0.626 -0.772,1.201 -1.369,1.723 -0.598,0.516 -1.526,0.777 -2.786,0.777 l -16.014,0 c -1.48,0 -2.49,-0.284 -3.024,-0.847 -0.539,-0.568 -0.806,-1.653 -0.806,-3.261 l 0,-10.491 c 0,-1.131 0.058,-2.031 0.168,-2.692 0.11,-0.661 0.313,-1.172 0.615,-1.532 0.296,-0.365 0.691,-0.598 1.178,-0.708 0.487,-0.11 1.114,-0.168 1.869,-0.168 l 14.784,0 c 1.799,0 3.041,0.261 3.731,0.777 0.697,0.523 1.045,1.289 1.045,2.292 l 0,4.161 -12.191,0 0,5.292 18.191,0 L 5.391,0 0,0 Z" /></g><path
           id="path78"
           style="fill:#ff9f19;fill-opacity:1;fill-rule:nonzero;stroke:none"
           d="m 503.188,88.951 6.377,0 0,-32.506 -6.377,0 0,32.506 z" /><g
           transform="translate(527.3269,56.4451)"
           id="g80"><path
             id="path82"
             style="fill:#ff9f19;fill-opacity:1;fill-rule:nonzero;stroke:none"
             d="m 0,0 0,26.076 -11.86,0 0,6.43 30.091,0 0,-6.43 -11.854,0 L 6.377,0 0,0 Z" /></g><g
           transform="translate(564.3643,82.568)"
           id="g84"><path
             id="path86"
             style="fill:#ff9f19;fill-opacity:1;fill-rule:nonzero;stroke:none"
             d="m 0,0 -7.369,-13.462 14.738,0 L 0,0 Z m 13.845,-26.123 -4.068,7.561 -19.601,0 -4.067,-7.561 -7.271,0 17.808,32.506 6.661,0 17.808,-32.506 -7.27,0 z" /></g><g
           transform="translate(590.7308,56.4451)"
           id="g88"><path
             id="path90"
             style="fill:#ff9f19;fill-opacity:1;fill-rule:nonzero;stroke:none"
             d="m 0,0 0,32.506 6.377,0 0,-26.083 24.469,0 L 30.846,0 0,0 Z" /></g><g
           transform="translate(627.1995,56.4451)"
           id="g92"><path
             id="path94"
             style="fill:#ff9f19;fill-opacity:1;fill-rule:nonzero;stroke:none"
             d="m 0,0 0,32.506 31.223,0 0,-6.43 -24.846,0 0,-7.177 24.138,0 0,-5.246 -24.138,0 0,-7.276 24.846,0 L 31.223,0 0,0 Z" /></g><g
           transform="translate(693.7763,56.4451)"
           id="g96"><path
             id="path98"
             style="fill:#ff9f19;fill-opacity:1;fill-rule:nonzero;stroke:none"
             d="m 0,0 c -1.799,0 -3.319,0.191 -4.561,0.569 -1.241,0.377 -2.251,0.98 -3.023,1.816 -0.772,0.835 -1.329,1.897 -1.677,3.191 -0.348,1.288 -0.522,2.867 -0.522,4.723 l 0,22.207 6.33,0 0,-22.207 C -3.453,8.913 -3.191,7.915 -2.669,7.3 -2.153,6.684 -1.259,6.377 0,6.377 l 15.87,0 c 1.259,0 2.153,0.307 2.669,0.923 0.522,0.615 0.783,1.613 0.783,2.999 l 0,22.207 6.377,0 0,-22.207 C 25.699,8.443 25.525,6.864 25.177,5.576 24.835,4.282 24.272,3.22 23.5,2.385 22.728,1.549 21.713,0.946 20.454,0.569 19.195,0.191 17.669,0 15.87,0 L 0,0 Z" /></g><g
           transform="translate(755.8979,56.4451)"
           id="g100"><path
             id="path102"
             style="fill:#ff9f19;fill-opacity:1;fill-rule:nonzero;stroke:none"
             d="m 0,0 -22.908,23.953 0,-23.953 -6.099,0 0,32.506 6.853,0 22.299,-23.53 0,23.53 6.139,0 L 6.284,0 0,0 Z" /></g><g
           transform="translate(799.8808,56.4451)"
           id="g104"><path
             id="path106"
             style="fill:#ff9f19;fill-opacity:1;fill-rule:nonzero;stroke:none"
             d="M 0,0 -0.186,3.969 C -0.279,3.493 -0.493,3.023 -0.824,2.553 -1.155,2.077 -1.578,1.654 -2.1,1.277 -2.617,0.899 -3.244,0.592 -3.969,0.354 -4.688,0.116 -5.512,0 -6.423,0 l -13.793,0 c -2.019,0 -3.679,0.162 -4.984,0.493 -1.312,0.331 -2.339,0.905 -3.099,1.729 -0.754,0.819 -1.282,1.898 -1.578,3.232 -0.302,1.341 -0.453,3.035 -0.453,5.083 l 0,11.431 c 0,1.95 0.151,3.598 0.453,4.938 0.296,1.335 0.824,2.426 1.578,3.261 0.76,0.83 1.787,1.428 3.099,1.793 1.305,0.36 2.965,0.546 4.984,0.546 l 16.485,0 c 1.195,0 2.24,-0.169 3.122,-0.499 C 0.267,31.676 1.027,31.264 1.654,30.776 2.286,30.289 2.791,29.773 3.168,29.221 3.545,28.67 3.83,28.171 4.015,27.73 L 0,23.576 c -0.313,0.626 -0.772,1.201 -1.369,1.723 -0.598,0.516 -1.526,0.777 -2.786,0.777 l -16.014,0 c -1.48,0 -2.49,-0.284 -3.024,-0.847 -0.539,-0.568 -0.806,-1.653 -0.806,-3.261 l 0,-10.491 c 0,-1.131 0.058,-2.031 0.168,-2.692 0.11,-0.661 0.313,-1.172 0.615,-1.532 0.296,-0.365 0.691,-0.598 1.178,-0.708 0.488,-0.11 1.114,-0.168 1.869,-0.168 l 14.784,0 c 1.799,0 3.041,0.261 3.731,0.777 0.697,0.523 1.045,1.289 1.045,2.292 l 0,4.161 -12.191,0 0,5.292 18.191,0 L 5.391,0 0,0 Z" /></g><g
           transform="translate(843.7709,78.367)"
           id="g108"><path
             id="path110"
             style="fill:#ff9f19;fill-opacity:1;fill-rule:nonzero;stroke:none"
             d="m 0,0 c 0,1.607 -0.284,2.698 -0.853,3.284 -0.563,0.58 -1.555,0.871 -2.977,0.871 l -20.923,0 0,-19.7 20.923,0 c 1.451,0 2.449,0.284 3,0.853 0.551,0.563 0.83,1.654 0.83,3.255 L 0,0 Z m -31.183,-21.922 0,32.506 27.353,0 c 1.985,0 3.633,-0.174 4.938,-0.522 C 2.414,9.713 3.458,9.122 4.23,8.292 5.002,7.456 5.553,6.371 5.884,5.031 6.214,3.69 6.377,2.031 6.377,0.046 l 0,-11.431 c 0,-1.984 -0.163,-3.655 -0.493,-5.007 -0.331,-1.358 -0.882,-2.443 -1.654,-3.261 -0.772,-0.818 -1.816,-1.404 -3.122,-1.747 -1.305,-0.348 -2.953,-0.522 -4.938,-0.522 l -27.353,0 z" /></g><g
           transform="translate(888.6069,78.367)"
           id="g112"><path
             id="path114"
             style="fill:#ff9f19;fill-opacity:1;fill-rule:nonzero;stroke:none"
             d="m 0,0 c 0,1.607 -0.284,2.698 -0.853,3.284 -0.569,0.58 -1.561,0.871 -2.977,0.871 l -17.1,0 c -1.415,0 -2.408,-0.291 -2.976,-0.871 C -24.475,2.698 -24.759,1.607 -24.759,0 l 0,-11.437 c 0,-0.818 0.064,-1.485 0.191,-2.007 0.128,-0.517 0.337,-0.935 0.638,-1.248 0.296,-0.319 0.691,-0.54 1.178,-0.661 0.488,-0.128 1.097,-0.192 1.822,-0.192 l 17.1,0 c 1.451,0 2.449,0.284 3,0.853 0.551,0.563 0.83,1.654 0.83,3.255 L 0,0 Z m -20.93,-21.922 c -1.984,0 -3.62,0.174 -4.914,0.522 -1.294,0.343 -2.333,0.929 -3.116,1.747 -0.789,0.818 -1.341,1.903 -1.654,3.261 -0.319,1.352 -0.476,3.023 -0.476,5.007 l 0,11.431 c 0,1.985 0.157,3.656 0.476,5.008 0.313,1.352 0.865,2.443 1.654,3.261 0.783,0.818 1.822,1.398 3.116,1.747 1.294,0.348 2.93,0.522 4.914,0.522 l 17.147,0 c 1.92,0 3.539,-0.174 4.845,-0.522 C 2.367,9.713 3.418,9.133 4.201,8.315 4.99,7.497 5.547,6.406 5.878,5.054 6.209,3.702 6.377,2.031 6.377,0.046 l 0,-11.431 c 0,-1.984 -0.168,-3.655 -0.499,-5.007 -0.331,-1.358 -0.888,-2.443 -1.677,-3.261 -0.783,-0.818 -1.834,-1.404 -3.139,-1.747 -1.306,-0.348 -2.925,-0.522 -4.845,-0.522 l -17.147,0 z" /></g><g
           transform="translate(934.7599,56.4451)"
           id="g116"><path
             id="path118"
             style="fill:#ff9f19;fill-opacity:1;fill-rule:nonzero;stroke:none"
             d="M 0,0 0,21.26 -10.299,0 l -5.902,0 -10.253,21.26 0,-21.26 -5.86,0 0,32.506 6.992,0 12.145,-25.984 12.185,25.984 6.853,0 L 5.861,0 0,0 Z" /></g></g></g></g></svg>